M48
;DRILL file {KiCad 4.0.2+dfsg1-stable} date Sa 30 Sep 2017 16:39:58 CEST
;FORMAT={-:-/ absolute / metric / decimal}
FMAT,2
METRIC,TZ
T1C0.300
T2C0.914
T3C1.000
T4C3.000
%
G90
G05
M71
T1
X103.4Y-73.2
X104.4Y-74.6
X104.7Y-73.3
X108.2Y-80.7
X109.3Y-72.8
X109.9Y-66.9
X110.Y-94.1
X110.3Y-71.6
X110.474Y-72.574
X110.6Y-66.
X112.4Y-66.
X112.4Y-66.9
X114.Y-85.1
X114.3Y-59.
X114.6Y-75.1
X115.4Y-80.1
X117.3Y-89.2
X117.5Y-80.1
X117.705Y-86.255
X118.Y-95.8
X119.5Y-96.
X120.Y-82.6
X120.1Y-87.2
X120.9Y-67.3
X120.9Y-68.8
X121.9Y-87.2
X122.243Y-80.957
X122.9Y-86.
X123.043Y-81.757
X123.5Y-78.7
X124.Y-76.6
X124.1Y-72.9
X124.3Y-79.3
X124.5Y-83.3
X124.976Y-72.324
X125.8Y-72.3
X131.143Y-89.857
X133.2Y-89.3
X133.9Y-74.4
X134.6Y-95.8
X134.7Y-65.3
X135.4Y-73.3
X136.2Y-66.
X137.4Y-77.4
X137.4Y-79.1
X138.2Y-67.7
X138.3Y-69.5
X138.4Y-77.4
X138.4Y-79.1
X138.4Y-90.4
X141.3Y-75.7
X141.6Y-82.9
X142.5Y-79.9
X142.6Y-84.79
X143.Y-78.3
X143.8Y-90.523
T2
X103.46Y-64.
X103.46Y-66.54
X103.46Y-69.08
X103.46Y-81.
X103.46Y-83.54
X103.46Y-86.08
X106.Y-64.
X106.Y-66.54
X106.Y-69.08
X106.Y-81.
X106.Y-83.54
X106.Y-86.08
T3
X112.Y-98.
X114.54Y-98.
X124.38Y-98.
X126.92Y-93.
X126.92Y-98.
X129.46Y-93.
X129.46Y-98.
X132.Y-93.
X132.Y-98.
X134.54Y-93.
X134.54Y-98.
X137.08Y-93.
X137.08Y-98.
X138.Y-59.92
X138.Y-62.46
X138.Y-65.
X139.62Y-93.
X139.62Y-98.
X145.Y-60.84
X145.Y-63.38
X145.Y-65.92
X145.Y-68.46
X145.Y-71.
X145.Y-73.54
X145.Y-76.08
X145.Y-80.92
X145.Y-83.46
X145.Y-86.
X145.Y-88.54
X148.Y-63.38
X148.Y-65.92
X148.Y-68.46
X148.Y-71.
X148.Y-73.54
X148.Y-76.08
X148.Y-82.46
X148.Y-85.
X148.Y-87.54
T4
X104.Y-54.
X104.Y-96.
X146.Y-54.
X146.Y-96.
T0
M30
