G04 #@! TF.FileFunction,Copper,L1,Top,Signal*
%FSLAX46Y46*%
G04 Gerber Fmt 4.6, Leading zero omitted, Abs format (unit mm)*
G04 Created by KiCad (PCBNEW 4.0.2+dfsg1-stable) date Sa 30 Sep 2017 16:39:42 CEST*
%MOMM*%
G01*
G04 APERTURE LIST*
%ADD10C,0.100000*%
%ADD11R,0.698500X0.599440*%
%ADD12C,6.000000*%
%ADD13R,1.700000X1.700000*%
%ADD14O,1.700000X1.700000*%
%ADD15R,0.599440X1.000760*%
%ADD16R,0.599440X0.698500*%
%ADD17R,2.000000X1.000000*%
%ADD18R,1.000000X2.000000*%
%ADD19R,1.000000X2.500000*%
%ADD20R,2.000000X4.000000*%
%ADD21R,3.800000X2.000000*%
%ADD22R,1.500000X2.000000*%
%ADD23C,1.422400*%
%ADD24C,0.600000*%
%ADD25C,0.500000*%
%ADD26C,0.200000*%
G04 APERTURE END LIST*
D10*
D11*
X114600000Y-74100000D03*
X114600000Y-73002720D03*
X118000000Y-96751360D03*
X118000000Y-97848640D03*
X117300000Y-88148640D03*
X117300000Y-87051360D03*
D12*
X104000000Y-54000000D03*
X146000000Y-54000000D03*
X146000000Y-96000000D03*
X104000000Y-96000000D03*
D13*
X138000000Y-65000000D03*
D14*
X138000000Y-62460000D03*
X138000000Y-59920000D03*
D13*
X148000000Y-82460000D03*
D14*
X148000000Y-85000000D03*
X148000000Y-87540000D03*
D13*
X145000000Y-80920000D03*
D14*
X145000000Y-83460000D03*
X145000000Y-86000000D03*
X145000000Y-88540000D03*
D13*
X148000000Y-63380000D03*
D14*
X148000000Y-65920000D03*
X148000000Y-68460000D03*
X148000000Y-71000000D03*
X148000000Y-73540000D03*
X148000000Y-76080000D03*
D13*
X145000000Y-60840000D03*
D14*
X145000000Y-63380000D03*
X145000000Y-65920000D03*
X145000000Y-68460000D03*
X145000000Y-71000000D03*
X145000000Y-73540000D03*
X145000000Y-76080000D03*
D13*
X139620000Y-93000000D03*
D14*
X137080000Y-93000000D03*
X134540000Y-93000000D03*
X132000000Y-93000000D03*
X129460000Y-93000000D03*
X126920000Y-93000000D03*
D13*
X139620000Y-98000000D03*
D14*
X137080000Y-98000000D03*
X134540000Y-98000000D03*
X132000000Y-98000000D03*
X129460000Y-98000000D03*
X126920000Y-98000000D03*
X124380000Y-98000000D03*
D13*
X112000000Y-98000000D03*
D14*
X114540000Y-98000000D03*
D15*
X111047500Y-85056640D03*
X112000000Y-82943360D03*
X112952500Y-85056640D03*
X115047500Y-83656640D03*
X116000000Y-81543360D03*
X116952500Y-83656640D03*
X119047500Y-86056640D03*
X120000000Y-83943360D03*
X120952500Y-86056640D03*
D11*
X135400000Y-72048640D03*
X135400000Y-70951360D03*
X112800000Y-61048640D03*
X112800000Y-59951360D03*
D16*
X113651360Y-63000000D03*
X114748640Y-63000000D03*
D11*
X114300000Y-59951360D03*
X114300000Y-61048640D03*
X139900000Y-78048640D03*
X139900000Y-76951360D03*
X141500000Y-78048640D03*
X141500000Y-76951360D03*
D16*
X115351360Y-85400000D03*
X116448640Y-85400000D03*
D11*
X135800000Y-67651360D03*
X135800000Y-68748640D03*
X137100000Y-67651360D03*
X137100000Y-68748640D03*
D17*
X117000000Y-73000000D03*
X117000000Y-71000000D03*
X117000000Y-69000000D03*
X117000000Y-67000000D03*
X117000000Y-65000000D03*
X117000000Y-63000000D03*
X117000000Y-61000000D03*
X117000000Y-59000000D03*
D18*
X120000000Y-74500000D03*
X122000000Y-74500000D03*
X124000000Y-74500000D03*
X126000000Y-74500000D03*
X128000000Y-74500000D03*
X130000000Y-74500000D03*
D17*
X133000000Y-73000000D03*
X133000000Y-71000000D03*
X133000000Y-69000000D03*
X133000000Y-67000000D03*
X133000000Y-65000000D03*
X133000000Y-63000000D03*
X133000000Y-61000000D03*
X133000000Y-59000000D03*
D19*
X119500000Y-93980000D03*
X121000000Y-93980000D03*
X122500000Y-93980000D03*
D20*
X121000000Y-90020000D03*
D10*
G36*
X122000000Y-91995000D02*
X121500000Y-92745000D01*
X120500000Y-92745000D01*
X120000000Y-91995000D01*
X122000000Y-91995000D01*
X122000000Y-91995000D01*
G37*
D21*
X114000000Y-87850000D03*
D22*
X114000000Y-94150000D03*
X116300000Y-94150000D03*
X111700000Y-94150000D03*
D23*
X106000000Y-69080000D03*
X103460000Y-69080000D03*
X106000000Y-66540000D03*
X103460000Y-66540000D03*
X106000000Y-64000000D03*
X103460000Y-64000000D03*
X106000000Y-86080000D03*
X103460000Y-86080000D03*
X106000000Y-83540000D03*
X103460000Y-83540000D03*
X106000000Y-81000000D03*
X103460000Y-81000000D03*
D24*
X118000000Y-95800000D03*
X117300000Y-89200000D03*
X135400000Y-73300000D03*
X133900000Y-74400000D03*
X114600000Y-75100000D03*
X119500000Y-96000000D03*
X110000000Y-94100000D03*
X114000000Y-85100000D03*
X114300000Y-59000000D03*
X141300000Y-75700000D03*
X141600000Y-82900000D03*
X124500000Y-83300000D03*
X120000000Y-82600000D03*
X104400000Y-74600000D03*
X115399980Y-80100000D03*
X117500000Y-80100000D03*
X137400000Y-77400000D03*
X137400000Y-79100000D03*
X103400000Y-73200000D03*
X110599969Y-66000000D03*
X112400020Y-66000000D03*
X142599991Y-84789771D03*
X138300000Y-69500000D03*
X138400000Y-77400000D03*
X138400000Y-79100000D03*
X138200000Y-67700000D03*
X134700000Y-65300000D03*
X136200000Y-66000000D03*
X134600000Y-95799980D03*
X104700000Y-73300000D03*
X112400020Y-66900000D03*
X109900000Y-66900000D03*
X142500000Y-79899980D03*
X110474272Y-72574285D03*
X124975722Y-72324278D03*
X143000000Y-78300000D03*
X143800031Y-90523055D03*
X138400000Y-90400000D03*
X108200000Y-80700000D03*
X109300000Y-72800000D03*
X110300000Y-71600000D03*
X125800000Y-72300000D03*
X131142872Y-89857128D03*
X133200000Y-89300000D03*
X120900000Y-68800000D03*
X120900000Y-67300000D03*
X123042872Y-81757128D03*
X122900020Y-86000000D03*
X124100000Y-72900020D03*
X124000000Y-76600000D03*
X117705083Y-86254765D03*
X124300000Y-79300000D03*
X122242872Y-80957128D03*
X120100000Y-87200000D03*
X121900000Y-87200000D03*
X123500000Y-78700000D03*
D25*
X118000000Y-96751360D02*
X118000000Y-95800000D01*
X117300000Y-88148640D02*
X117300000Y-89200000D01*
X135400000Y-72048640D02*
X135400000Y-73300000D01*
X133000000Y-73000000D02*
X133000000Y-73500000D01*
X133000000Y-73500000D02*
X133900000Y-74400000D01*
X114600000Y-74100000D02*
X114600000Y-75100000D01*
X119500000Y-93980000D02*
X119500000Y-96000000D01*
X111700000Y-94150000D02*
X110050000Y-94150000D01*
X110050000Y-94150000D02*
X110000000Y-94100000D01*
X112952500Y-85056640D02*
X113956640Y-85056640D01*
X113956640Y-85056640D02*
X114000000Y-85100000D01*
D26*
X114300000Y-59951360D02*
X114300000Y-59000000D01*
D25*
X121000000Y-92370000D02*
X121000000Y-90020000D01*
X121000000Y-93980000D02*
X121000000Y-92370000D01*
D26*
X111600000Y-63800000D02*
X112400000Y-63000000D01*
X112400000Y-63000000D02*
X113651360Y-63000000D01*
X111600000Y-69503000D02*
X111600000Y-63800000D01*
X114600000Y-73002720D02*
X114600000Y-72503000D01*
X114600000Y-72503000D02*
X111600000Y-69503000D01*
D25*
X114600000Y-73002720D02*
X116997280Y-73002720D01*
X116997280Y-73002720D02*
X117000000Y-73000000D01*
X120952500Y-80152500D02*
X117000000Y-76200000D01*
X117000000Y-76200000D02*
X117000000Y-73000000D01*
X120952500Y-86056640D02*
X120952500Y-80152500D01*
X114000000Y-94150000D02*
X114000000Y-92650000D01*
X114000000Y-92650000D02*
X114000000Y-87850000D01*
X121000000Y-90020000D02*
X121000000Y-86104140D01*
X121000000Y-86104140D02*
X120952500Y-86056640D01*
X117300000Y-87051360D02*
X118031360Y-87051360D01*
X118031360Y-87051360D02*
X121000000Y-90020000D01*
X117300000Y-87051360D02*
X114798640Y-87051360D01*
X114798640Y-87051360D02*
X114000000Y-87850000D01*
X114540000Y-98000000D02*
X114540000Y-96797919D01*
X114540000Y-96797919D02*
X113942081Y-96200000D01*
X113942081Y-96200000D02*
X109600000Y-96200000D01*
X109600000Y-96200000D02*
X108500000Y-95100000D01*
X108500000Y-95100000D02*
X108500000Y-84700000D01*
X114000000Y-81500000D02*
X115100000Y-82600000D01*
X108500000Y-84700000D02*
X111700000Y-81500000D01*
X116096520Y-82600000D02*
X116952500Y-83455980D01*
X111700000Y-81500000D02*
X114000000Y-81500000D01*
X115100000Y-82600000D02*
X116096520Y-82600000D01*
X116952500Y-83455980D02*
X116952500Y-83656640D01*
X120551360Y-97848640D02*
X122500000Y-95900000D01*
X122500000Y-95900000D02*
X122500000Y-93980000D01*
X118000000Y-97848640D02*
X120551360Y-97848640D01*
X114540000Y-98000000D02*
X116300000Y-96240000D01*
X116300000Y-96240000D02*
X116300000Y-94150000D01*
X118000000Y-97848640D02*
X114691360Y-97848640D01*
X114691360Y-97848640D02*
X114540000Y-98000000D01*
X116952500Y-83656640D02*
X116952500Y-84896140D01*
X116952500Y-84896140D02*
X116448640Y-85400000D01*
D26*
X138000000Y-65000000D02*
X136950000Y-65000000D01*
X136950000Y-65000000D02*
X136000000Y-64050000D01*
X135000000Y-61000000D02*
X133000000Y-61000000D01*
X136000000Y-64050000D02*
X136000000Y-62000000D01*
X136000000Y-62000000D02*
X135000000Y-61000000D01*
X138000000Y-62460000D02*
X134540000Y-59000000D01*
X134540000Y-59000000D02*
X133000000Y-59000000D01*
X137100000Y-68748640D02*
X142748640Y-68748640D01*
X142748640Y-68748640D02*
X145000000Y-71000000D01*
X135800000Y-68748640D02*
X137100000Y-68748640D01*
X139900000Y-76951360D02*
X140048640Y-76951360D01*
X140048640Y-76951360D02*
X141300000Y-75700000D01*
X141500000Y-76951360D02*
X141500000Y-75900000D01*
X141500000Y-75900000D02*
X141300000Y-75700000D01*
X149300000Y-71700000D02*
X149300000Y-63630000D01*
X149300000Y-63630000D02*
X149050000Y-63380000D01*
X149050000Y-63380000D02*
X148000000Y-63380000D01*
X148700000Y-72300000D02*
X149300000Y-71700000D01*
X146300000Y-72300000D02*
X148700000Y-72300000D01*
X145000000Y-71000000D02*
X146300000Y-72300000D01*
D25*
X141300000Y-75700000D02*
X141300000Y-74700000D01*
X141300000Y-74700000D02*
X145000000Y-71000000D01*
X141600000Y-89670000D02*
X141600000Y-82900000D01*
X139620000Y-93000000D02*
X139620000Y-91650000D01*
X139620000Y-91650000D02*
X141600000Y-89670000D01*
X128600000Y-95900000D02*
X129460000Y-96760000D01*
X129460000Y-96760000D02*
X129460000Y-98000000D01*
X126700000Y-95900000D02*
X128600000Y-95900000D01*
X125300000Y-94500000D02*
X126700000Y-95900000D01*
X125300000Y-84100000D02*
X125300000Y-94500000D01*
X124500000Y-83300000D02*
X125300000Y-84100000D01*
X101800000Y-75900000D02*
X103100000Y-74600000D01*
X103100000Y-74600000D02*
X104400000Y-74600000D01*
X101800000Y-84100000D02*
X101800000Y-75900000D01*
X102401201Y-84701201D02*
X101800000Y-84100000D01*
X106000000Y-86080000D02*
X105288801Y-85368801D01*
X105288801Y-85368801D02*
X104467379Y-85368801D01*
X103799779Y-84701201D02*
X102401201Y-84701201D01*
X104467379Y-85368801D02*
X103799779Y-84701201D01*
X111980000Y-80100000D02*
X114975716Y-80100000D01*
X114975716Y-80100000D02*
X115399980Y-80100000D01*
X106000000Y-86080000D02*
X111980000Y-80100000D01*
X120000000Y-83943360D02*
X120000000Y-82600000D01*
X120000000Y-82600000D02*
X117500000Y-80100000D01*
D26*
X134700000Y-67900000D02*
X134948640Y-67651360D01*
X134948640Y-67651360D02*
X135800000Y-67651360D01*
X134700000Y-69200000D02*
X134700000Y-67900000D01*
X135300000Y-69800000D02*
X134700000Y-69200000D01*
X136100000Y-69800000D02*
X135300000Y-69800000D01*
X137400000Y-71100000D02*
X136100000Y-69800000D01*
X137400000Y-77400000D02*
X137400000Y-71100000D01*
X141800000Y-81100000D02*
X139400000Y-81100000D01*
X139400000Y-81100000D02*
X137400000Y-79100000D01*
X143200011Y-82500011D02*
X141800000Y-81100000D01*
X143200011Y-87799989D02*
X143200011Y-82500011D01*
X135800000Y-67651360D02*
X135800000Y-67151640D01*
X135800000Y-67151640D02*
X136051629Y-66900011D01*
X136051629Y-66900011D02*
X136212007Y-66900011D01*
X135599998Y-66288002D02*
X136212007Y-66900011D01*
X135599998Y-65099998D02*
X135599998Y-66288002D01*
X133500000Y-63000000D02*
X135599998Y-65099998D01*
X133000000Y-63000000D02*
X133500000Y-63000000D01*
X144150001Y-67610001D02*
X145000000Y-68460000D01*
X143440011Y-66900011D02*
X144150001Y-67610001D01*
X136212007Y-66900011D02*
X143440011Y-66900011D01*
X133600000Y-96400000D02*
X132849999Y-97150001D01*
X132849999Y-97150001D02*
X132000000Y-98000000D01*
X145000000Y-86000000D02*
X143200011Y-87799989D01*
X143200011Y-87799989D02*
X143200011Y-93165689D01*
X143200011Y-93165689D02*
X139965700Y-96400000D01*
X139965700Y-96400000D02*
X133600000Y-96400000D01*
X144908640Y-68551360D02*
X145000000Y-68460000D01*
X101249989Y-84875777D02*
X102454212Y-86080000D01*
X101249989Y-75350011D02*
X101249989Y-84875777D01*
X103400000Y-73200000D02*
X101249989Y-75350011D01*
X102454212Y-86080000D02*
X103460000Y-86080000D01*
X110599969Y-66424264D02*
X110599969Y-66000000D01*
X110599969Y-67300031D02*
X110599969Y-66424264D01*
X133000000Y-63000000D02*
X132500000Y-63000000D01*
X107300000Y-70600000D02*
X110599969Y-67300031D01*
X103460000Y-69080000D02*
X104980000Y-70600000D01*
X112824284Y-66000000D02*
X112400020Y-66000000D01*
X104980000Y-70600000D02*
X107300000Y-70600000D01*
X132500000Y-63000000D02*
X129500000Y-66000000D01*
X129500000Y-66000000D02*
X112824284Y-66000000D01*
X142599991Y-85214035D02*
X142599991Y-84789771D01*
X142599991Y-93200009D02*
X142599991Y-85214035D01*
X140000020Y-95799980D02*
X142599991Y-93200009D01*
X134600000Y-95799980D02*
X140000020Y-95799980D01*
X138400000Y-77400000D02*
X138400000Y-69600000D01*
X138400000Y-69600000D02*
X138300000Y-69500000D01*
X142000000Y-80500000D02*
X139800000Y-80500000D01*
X139800000Y-80500000D02*
X138400000Y-79100000D01*
X144110001Y-82610001D02*
X142000000Y-80500000D01*
X145000000Y-83460000D02*
X144150001Y-82610001D01*
X144150001Y-82610001D02*
X144110001Y-82610001D01*
X138200000Y-67700000D02*
X137148640Y-67700000D01*
X137148640Y-67700000D02*
X137100000Y-67651360D01*
X134700000Y-65300000D02*
X133300000Y-65300000D01*
X133300000Y-65300000D02*
X133000000Y-65000000D01*
X143217919Y-66500000D02*
X136700000Y-66500000D01*
X136700000Y-66500000D02*
X136200000Y-66000000D01*
X145000000Y-65920000D02*
X143797919Y-65920000D01*
X143797919Y-65920000D02*
X143217919Y-66500000D01*
X145000000Y-65920000D02*
X146500000Y-67420000D01*
X146500000Y-67420000D02*
X146500000Y-69500000D01*
X146500000Y-69500000D02*
X147150001Y-70150001D01*
X147150001Y-70150001D02*
X148000000Y-71000000D01*
X107500000Y-76524264D02*
X107500000Y-82040000D01*
X107500000Y-82040000D02*
X106000000Y-83540000D01*
X104700000Y-73300000D02*
X104700000Y-73724264D01*
X104700000Y-73724264D02*
X107500000Y-76524264D01*
X113500020Y-68000000D02*
X112700019Y-67199999D01*
X112700019Y-67199999D02*
X112400020Y-66900000D01*
X131800000Y-65000000D02*
X128800000Y-68000000D01*
X128800000Y-68000000D02*
X113500020Y-68000000D01*
X133000000Y-65000000D02*
X131800000Y-65000000D01*
X109900000Y-66900000D02*
X109540000Y-66540000D01*
X109540000Y-66540000D02*
X106000000Y-66540000D01*
X144871360Y-66048640D02*
X145000000Y-65920000D01*
X137111998Y-78499998D02*
X138911998Y-78499998D01*
X137111996Y-78500000D02*
X137111998Y-78499998D01*
X127500000Y-78500000D02*
X137111996Y-78500000D01*
X142075736Y-79899980D02*
X142500000Y-79899980D01*
X140311980Y-79899980D02*
X142075736Y-79899980D01*
X124000000Y-75000000D02*
X127500000Y-78500000D01*
X138911998Y-78499998D02*
X140311980Y-79899980D01*
X124000000Y-74500000D02*
X124000000Y-75000000D01*
X110174273Y-72274286D02*
X110474272Y-72574285D01*
X103460000Y-66540000D02*
X102454212Y-66540000D01*
X109011999Y-72199999D02*
X110099986Y-72199999D01*
X110099986Y-72199999D02*
X110174273Y-72274286D01*
X103908585Y-72574285D02*
X108637713Y-72574285D01*
X108637713Y-72574285D02*
X109011999Y-72199999D01*
X101699989Y-67294223D02*
X101699989Y-70365689D01*
X104720000Y-84800000D02*
X106400000Y-84800000D01*
X102454212Y-66540000D02*
X101699989Y-67294223D01*
X103460000Y-83540000D02*
X104720000Y-84800000D01*
X110474272Y-80725728D02*
X110474272Y-72998549D01*
X110474272Y-72998549D02*
X110474272Y-72574285D01*
X101699989Y-70365689D02*
X103908585Y-72574285D01*
X106400000Y-84800000D02*
X110474272Y-80725728D01*
X124975722Y-72748542D02*
X124975722Y-72324278D01*
X124975722Y-73024278D02*
X124975722Y-72748542D01*
X124000000Y-74000000D02*
X124975722Y-73024278D01*
X124000000Y-74500000D02*
X124000000Y-74000000D01*
X146300000Y-78300000D02*
X148000000Y-80000000D01*
X148000000Y-80000000D02*
X148000000Y-82460000D01*
X143000000Y-78300000D02*
X146300000Y-78300000D01*
X143000000Y-78300000D02*
X141751360Y-78300000D01*
X141751360Y-78300000D02*
X141500000Y-78048640D01*
X146500000Y-89900000D02*
X145876945Y-90523055D01*
X145876945Y-90523055D02*
X144224295Y-90523055D01*
X146500000Y-86500000D02*
X146500000Y-89900000D01*
X148000000Y-85000000D02*
X146500000Y-86500000D01*
X144224295Y-90523055D02*
X143800031Y-90523055D01*
X138400000Y-90400000D02*
X137975736Y-90400000D01*
X137975736Y-90400000D02*
X137080000Y-91295736D01*
X137080000Y-91295736D02*
X137080000Y-91797919D01*
X137080000Y-91797919D02*
X137080000Y-93000000D01*
X108100000Y-74000000D02*
X108100000Y-80600000D01*
X108100000Y-80600000D02*
X108200000Y-80700000D01*
X109300000Y-72800000D02*
X108100000Y-74000000D01*
X104800000Y-67400000D02*
X104800000Y-65200000D01*
X104800000Y-65200000D02*
X106000000Y-64000000D01*
X104400000Y-67800000D02*
X104800000Y-67400000D01*
X102600000Y-67800000D02*
X104400000Y-67800000D01*
X102100000Y-68300000D02*
X102600000Y-67800000D01*
X102100000Y-70200000D02*
X102100000Y-68300000D01*
X103500000Y-71600000D02*
X102100000Y-70200000D01*
X110300000Y-71600000D02*
X103500000Y-71600000D01*
X126000000Y-74500000D02*
X126000000Y-72500000D01*
X126000000Y-72500000D02*
X125800000Y-72300000D01*
X139900000Y-78048640D02*
X139949530Y-78048640D01*
X139949530Y-78048640D02*
X141000890Y-79100000D01*
X141000890Y-79100000D02*
X146100000Y-79100000D01*
X146100000Y-79100000D02*
X146500000Y-79500000D01*
X146500000Y-79500000D02*
X146500000Y-83500000D01*
X146500000Y-83500000D02*
X148000000Y-85000000D01*
X126000000Y-74500000D02*
X126000000Y-75000000D01*
X126000000Y-75000000D02*
X129048640Y-78048640D01*
X129048640Y-78048640D02*
X139350750Y-78048640D01*
X139350750Y-78048640D02*
X139900000Y-78048640D01*
X118900011Y-70400011D02*
X118900011Y-76200011D01*
X117000000Y-69000000D02*
X117500000Y-69000000D01*
X117500000Y-69000000D02*
X118900011Y-70400011D01*
X118900011Y-76200011D02*
X134497919Y-91797919D01*
X134497919Y-91797919D02*
X134540000Y-91797919D01*
X134540000Y-91797919D02*
X134540000Y-93000000D01*
X117500000Y-71000000D02*
X118500000Y-72000000D01*
X132000000Y-91797919D02*
X132000000Y-93000000D01*
X118500000Y-72000000D02*
X118500000Y-76365700D01*
X132000000Y-89865700D02*
X132000000Y-91797919D01*
X118500000Y-76365700D02*
X132000000Y-89865700D01*
X117000000Y-71000000D02*
X117500000Y-71000000D01*
X130842873Y-90157127D02*
X131142872Y-89857128D01*
X129460000Y-91540000D02*
X130842873Y-90157127D01*
X129460000Y-93000000D02*
X129460000Y-91540000D01*
X132900001Y-89000001D02*
X133200000Y-89300000D01*
X120900000Y-77000000D02*
X132900001Y-89000001D01*
X120900000Y-68800000D02*
X120900000Y-77000000D01*
X117000000Y-67000000D02*
X120600000Y-67000000D01*
X120600000Y-67000000D02*
X120900000Y-67300000D01*
X122900020Y-81899980D02*
X123042872Y-81757128D01*
X122900020Y-86000000D02*
X122900020Y-81899980D01*
X124100000Y-72475756D02*
X124100000Y-72900020D01*
X124100000Y-72275736D02*
X124100000Y-72475756D01*
X126088004Y-71700000D02*
X126088002Y-71699998D01*
X129800000Y-71700000D02*
X126088004Y-71700000D01*
X132500000Y-69000000D02*
X129800000Y-71700000D01*
X133000000Y-69000000D02*
X132500000Y-69000000D01*
X124675738Y-71699998D02*
X124100000Y-72275736D01*
X126088002Y-71699998D02*
X124675738Y-71699998D01*
X124299999Y-76899999D02*
X124000000Y-76600000D01*
X124300000Y-79300000D02*
X124299999Y-76899999D01*
X117705083Y-86254765D02*
X112044965Y-86254765D01*
X112044965Y-86254765D02*
X111047500Y-85257300D01*
X111047500Y-85257300D02*
X111047500Y-85056640D01*
X115047500Y-83656640D02*
X112512620Y-83656640D01*
X112512620Y-83656640D02*
X112000000Y-83144020D01*
X112000000Y-83144020D02*
X112000000Y-82943360D01*
D25*
X115047500Y-83656640D02*
X115047500Y-85096140D01*
X115047500Y-85096140D02*
X115351360Y-85400000D01*
D26*
X112750470Y-59951360D02*
X112800000Y-59951360D01*
X116000000Y-81543360D02*
X116000000Y-79000000D01*
X111199989Y-74199989D02*
X111199989Y-61501841D01*
X111199989Y-61501841D02*
X112750470Y-59951360D01*
X116000000Y-79000000D02*
X111199989Y-74199989D01*
X121942873Y-81257127D02*
X122242872Y-80957128D01*
X121900000Y-87200000D02*
X121900000Y-81300000D01*
X121900000Y-81300000D02*
X121942873Y-81257127D01*
X120100000Y-87200000D02*
X120100000Y-87109140D01*
X120100000Y-87109140D02*
X119047500Y-86056640D01*
X123000000Y-72800000D02*
X123000000Y-78200000D01*
X123000000Y-78200000D02*
X123500000Y-78700000D01*
X124700000Y-71100000D02*
X123000000Y-72800000D01*
X128400000Y-71100000D02*
X124700000Y-71100000D01*
X133000000Y-67000000D02*
X132500000Y-67000000D01*
X132500000Y-67000000D02*
X128400000Y-71100000D01*
X133000000Y-71000000D02*
X135351360Y-71000000D01*
X135351360Y-71000000D02*
X135400000Y-70951360D01*
X114300000Y-61048640D02*
X112800000Y-61048640D01*
X117000000Y-61000000D02*
X114348640Y-61000000D01*
X114348640Y-61000000D02*
X114300000Y-61048640D01*
X114748640Y-63000000D02*
X117000000Y-63000000D01*
X119100000Y-64500000D02*
X118600000Y-65000000D01*
X118600000Y-65000000D02*
X117000000Y-65000000D01*
X119100000Y-59900000D02*
X119100000Y-64500000D01*
X117000000Y-59000000D02*
X118200000Y-59000000D01*
X118200000Y-59000000D02*
X119100000Y-59900000D01*
M02*
