G04 #@! TF.FileFunction,Legend,Bot*
%FSLAX46Y46*%
G04 Gerber Fmt 4.6, Leading zero omitted, Abs format (unit mm)*
G04 Created by KiCad (PCBNEW 4.0.2+dfsg1-stable) date Sa 30 Sep 2017 16:39:42 CEST*
%MOMM*%
G01*
G04 APERTURE LIST*
%ADD10C,0.100000*%
%ADD11C,0.300000*%
%ADD12C,0.010000*%
%ADD13C,6.400000*%
%ADD14R,2.100000X2.100000*%
%ADD15O,2.100000X2.100000*%
%ADD16C,1.822400*%
%ADD17C,1.000000*%
G04 APERTURE END LIST*
D10*
D11*
X113050000Y-91671428D02*
X113121429Y-91742856D01*
X113335714Y-91885713D01*
X113478571Y-91957142D01*
X113692857Y-92028571D01*
X114050000Y-92099999D01*
X114335714Y-92099999D01*
X114692857Y-92028571D01*
X114907143Y-91957142D01*
X115050000Y-91885713D01*
X115264286Y-91742856D01*
X115335714Y-91671428D01*
X113692857Y-90457142D02*
X113621429Y-90599999D01*
X113621429Y-90885713D01*
X113692857Y-91028571D01*
X113764286Y-91099999D01*
X113907143Y-91171428D01*
X114335714Y-91171428D01*
X114478571Y-91099999D01*
X114550000Y-91028571D01*
X114621429Y-90885713D01*
X114621429Y-90599999D01*
X114550000Y-90457142D01*
X113050000Y-89957142D02*
X113121429Y-89885714D01*
X113335714Y-89742857D01*
X113478571Y-89671428D01*
X113692857Y-89599999D01*
X114050000Y-89528571D01*
X114335714Y-89528571D01*
X114692857Y-89599999D01*
X114907143Y-89671428D01*
X115050000Y-89742857D01*
X115264286Y-89885714D01*
X115335714Y-89957142D01*
X113764286Y-86814285D02*
X113692857Y-86885714D01*
X113621429Y-87100000D01*
X113621429Y-87242857D01*
X113692857Y-87457142D01*
X113835714Y-87600000D01*
X113978571Y-87671428D01*
X114264286Y-87742857D01*
X114478571Y-87742857D01*
X114764286Y-87671428D01*
X114907143Y-87600000D01*
X115050000Y-87457142D01*
X115121429Y-87242857D01*
X115121429Y-87100000D01*
X115050000Y-86885714D01*
X114978571Y-86814285D01*
X113621429Y-86171428D02*
X115121429Y-86171428D01*
X113621429Y-85528571D02*
X114407143Y-85528571D01*
X114550000Y-85600000D01*
X114621429Y-85742857D01*
X114621429Y-85957142D01*
X114550000Y-86100000D01*
X114478571Y-86171428D01*
X113621429Y-84814285D02*
X114621429Y-84814285D01*
X114335714Y-84814285D02*
X114478571Y-84742857D01*
X114550000Y-84671428D01*
X114621429Y-84528571D01*
X114621429Y-84385714D01*
X113621429Y-83885714D02*
X114621429Y-83885714D01*
X115121429Y-83885714D02*
X115050000Y-83957143D01*
X114978571Y-83885714D01*
X115050000Y-83814286D01*
X115121429Y-83885714D01*
X114978571Y-83885714D01*
X113692857Y-83242857D02*
X113621429Y-83100000D01*
X113621429Y-82814285D01*
X113692857Y-82671428D01*
X113835714Y-82600000D01*
X113907143Y-82600000D01*
X114050000Y-82671428D01*
X114121429Y-82814285D01*
X114121429Y-83028571D01*
X114192857Y-83171428D01*
X114335714Y-83242857D01*
X114407143Y-83242857D01*
X114550000Y-83171428D01*
X114621429Y-83028571D01*
X114621429Y-82814285D01*
X114550000Y-82671428D01*
X114621429Y-82171428D02*
X114621429Y-81599999D01*
X115121429Y-81957142D02*
X113835714Y-81957142D01*
X113692857Y-81885714D01*
X113621429Y-81742856D01*
X113621429Y-81599999D01*
X113621429Y-81099999D02*
X114621429Y-81099999D01*
X115121429Y-81099999D02*
X115050000Y-81171428D01*
X114978571Y-81099999D01*
X115050000Y-81028571D01*
X115121429Y-81099999D01*
X114978571Y-81099999D01*
X113621429Y-79742856D02*
X114407143Y-79742856D01*
X114550000Y-79814285D01*
X114621429Y-79957142D01*
X114621429Y-80242856D01*
X114550000Y-80385713D01*
X113692857Y-79742856D02*
X113621429Y-79885713D01*
X113621429Y-80242856D01*
X113692857Y-80385713D01*
X113835714Y-80457142D01*
X113978571Y-80457142D01*
X114121429Y-80385713D01*
X114192857Y-80242856D01*
X114192857Y-79885713D01*
X114264286Y-79742856D01*
X114621429Y-79028570D02*
X113621429Y-79028570D01*
X114478571Y-79028570D02*
X114550000Y-78957142D01*
X114621429Y-78814284D01*
X114621429Y-78599999D01*
X114550000Y-78457142D01*
X114407143Y-78385713D01*
X113621429Y-78385713D01*
X113764286Y-75671427D02*
X113692857Y-75742856D01*
X113621429Y-75957142D01*
X113621429Y-76099999D01*
X113692857Y-76314284D01*
X113835714Y-76457142D01*
X113978571Y-76528570D01*
X114264286Y-76599999D01*
X114478571Y-76599999D01*
X114764286Y-76528570D01*
X114907143Y-76457142D01*
X115050000Y-76314284D01*
X115121429Y-76099999D01*
X115121429Y-75957142D01*
X115050000Y-75742856D01*
X114978571Y-75671427D01*
X113621429Y-74385713D02*
X114407143Y-74385713D01*
X114550000Y-74457142D01*
X114621429Y-74599999D01*
X114621429Y-74885713D01*
X114550000Y-75028570D01*
X113692857Y-74385713D02*
X113621429Y-74528570D01*
X113621429Y-74885713D01*
X113692857Y-75028570D01*
X113835714Y-75099999D01*
X113978571Y-75099999D01*
X114121429Y-75028570D01*
X114192857Y-74885713D01*
X114192857Y-74528570D01*
X114264286Y-74385713D01*
X113621429Y-73671427D02*
X114621429Y-73671427D01*
X114335714Y-73671427D02*
X114478571Y-73599999D01*
X114550000Y-73528570D01*
X114621429Y-73385713D01*
X114621429Y-73242856D01*
X113621429Y-72528570D02*
X113692857Y-72671428D01*
X113835714Y-72742856D01*
X115121429Y-72742856D01*
X113621429Y-71742856D02*
X113692857Y-71885714D01*
X113764286Y-71957142D01*
X113907143Y-72028571D01*
X114335714Y-72028571D01*
X114478571Y-71957142D01*
X114550000Y-71885714D01*
X114621429Y-71742856D01*
X114621429Y-71528571D01*
X114550000Y-71385714D01*
X114478571Y-71314285D01*
X114335714Y-71242856D01*
X113907143Y-71242856D01*
X113764286Y-71314285D01*
X113692857Y-71385714D01*
X113621429Y-71528571D01*
X113621429Y-71742856D01*
X114621429Y-70742856D02*
X113621429Y-70457142D01*
X114335714Y-70171428D01*
X113621429Y-69885713D01*
X114621429Y-69599999D01*
X113621429Y-69028570D02*
X114621429Y-69028570D01*
X115121429Y-69028570D02*
X115050000Y-69099999D01*
X114978571Y-69028570D01*
X115050000Y-68957142D01*
X115121429Y-69028570D01*
X114978571Y-69028570D01*
X114621429Y-68528570D02*
X114621429Y-67957141D01*
X115121429Y-68314284D02*
X113835714Y-68314284D01*
X113692857Y-68242856D01*
X113621429Y-68099998D01*
X113621429Y-67957141D01*
X114621429Y-67599998D02*
X114621429Y-66814284D01*
X113621429Y-67599998D01*
X113621429Y-66814284D01*
X114978571Y-65171427D02*
X115050000Y-65099998D01*
X115121429Y-64957141D01*
X115121429Y-64599998D01*
X115050000Y-64457141D01*
X114978571Y-64385712D01*
X114835714Y-64314284D01*
X114692857Y-64314284D01*
X114478571Y-64385712D01*
X113621429Y-65242855D01*
X113621429Y-64314284D01*
X115121429Y-63385713D02*
X115121429Y-63242856D01*
X115050000Y-63099999D01*
X114978571Y-63028570D01*
X114835714Y-62957141D01*
X114550000Y-62885713D01*
X114192857Y-62885713D01*
X113907143Y-62957141D01*
X113764286Y-63028570D01*
X113692857Y-63099999D01*
X113621429Y-63242856D01*
X113621429Y-63385713D01*
X113692857Y-63528570D01*
X113764286Y-63599999D01*
X113907143Y-63671427D01*
X114192857Y-63742856D01*
X114550000Y-63742856D01*
X114835714Y-63671427D01*
X114978571Y-63599999D01*
X115050000Y-63528570D01*
X115121429Y-63385713D01*
X113621429Y-61457142D02*
X113621429Y-62314285D01*
X113621429Y-61885713D02*
X115121429Y-61885713D01*
X114907143Y-62028570D01*
X114764286Y-62171428D01*
X114692857Y-62314285D01*
X115121429Y-60957142D02*
X115121429Y-59957142D01*
X113621429Y-60599999D01*
D12*
G36*
X132527717Y-53528087D02*
X132525604Y-53362876D01*
X132522802Y-53207758D01*
X132519753Y-53085118D01*
X132515874Y-52988361D01*
X132510583Y-52910888D01*
X132503300Y-52846105D01*
X132493443Y-52787413D01*
X132480429Y-52728216D01*
X132463859Y-52662615D01*
X132378433Y-52400139D01*
X132266751Y-52165750D01*
X132129306Y-51960002D01*
X131966590Y-51783449D01*
X131779097Y-51636647D01*
X131567319Y-51520150D01*
X131387307Y-51451222D01*
X131284149Y-51426846D01*
X131153721Y-51408750D01*
X131007410Y-51397496D01*
X130856603Y-51393646D01*
X130712686Y-51397762D01*
X130587046Y-51410406D01*
X130580670Y-51411395D01*
X130281375Y-51476909D01*
X129972706Y-51579760D01*
X129655451Y-51719553D01*
X129330395Y-51895893D01*
X128998325Y-52108383D01*
X128660026Y-52356629D01*
X128584904Y-52415953D01*
X128485320Y-52499498D01*
X128365233Y-52606572D01*
X128230269Y-52731647D01*
X128086053Y-52869195D01*
X127938211Y-53013690D01*
X127792368Y-53159602D01*
X127654152Y-53301404D01*
X127529186Y-53433569D01*
X127423098Y-53550568D01*
X127382402Y-53597518D01*
X127210361Y-53799729D01*
X127132512Y-53640848D01*
X127020930Y-53454080D01*
X126884322Y-53296612D01*
X126724046Y-53168924D01*
X126541463Y-53071492D01*
X126337932Y-53004795D01*
X126114814Y-52969311D01*
X125873468Y-52965518D01*
X125615254Y-52993895D01*
X125412813Y-53036209D01*
X125124162Y-53123423D01*
X124820961Y-53244250D01*
X124505565Y-53397075D01*
X124180332Y-53580280D01*
X123847618Y-53792249D01*
X123509780Y-54031367D01*
X123169174Y-54296016D01*
X122828158Y-54584580D01*
X122489088Y-54895443D01*
X122154321Y-55226989D01*
X122031058Y-55355597D01*
X121567101Y-55864433D01*
X121104732Y-56406429D01*
X120648177Y-56975755D01*
X120201666Y-57566584D01*
X119769425Y-58173086D01*
X119355683Y-58789434D01*
X118964668Y-59409799D01*
X118600607Y-60028353D01*
X118464091Y-60272846D01*
X118396314Y-60398813D01*
X118316893Y-60550805D01*
X118228920Y-60722541D01*
X118135490Y-60907745D01*
X118039697Y-61100137D01*
X117944636Y-61293439D01*
X117853401Y-61481372D01*
X117769086Y-61657659D01*
X117694786Y-61816020D01*
X117633595Y-61950177D01*
X117602267Y-62021538D01*
X117341857Y-62658135D01*
X117113073Y-63280578D01*
X116916232Y-63887767D01*
X116751652Y-64478603D01*
X116619650Y-65051986D01*
X116520543Y-65606815D01*
X116478285Y-65919461D01*
X116468781Y-66024712D01*
X116461228Y-66159413D01*
X116455591Y-66317478D01*
X116451839Y-66492818D01*
X116449937Y-66679345D01*
X116449854Y-66870971D01*
X116451557Y-67061608D01*
X116455011Y-67245169D01*
X116460186Y-67415565D01*
X116467046Y-67566708D01*
X116475560Y-67692511D01*
X116485695Y-67786885D01*
X116488489Y-67804923D01*
X116564780Y-68172410D01*
X116664678Y-68513454D01*
X116787397Y-68825535D01*
X116842248Y-68940795D01*
X116938615Y-69132828D01*
X116938615Y-80270106D01*
X116938626Y-81073706D01*
X116938662Y-81839106D01*
X116938723Y-82567181D01*
X116938812Y-83258810D01*
X116938931Y-83914867D01*
X116939083Y-84536231D01*
X116939269Y-85123777D01*
X116939491Y-85678381D01*
X116939752Y-86200921D01*
X116940053Y-86692273D01*
X116940397Y-87153314D01*
X116940786Y-87584919D01*
X116941222Y-87987967D01*
X116941706Y-88363332D01*
X116942242Y-88711892D01*
X116942830Y-89034524D01*
X116943474Y-89332103D01*
X116944175Y-89605506D01*
X116944936Y-89855610D01*
X116945757Y-90083292D01*
X116946642Y-90289428D01*
X116947593Y-90474894D01*
X116948612Y-90640567D01*
X116949700Y-90787324D01*
X116950860Y-90916041D01*
X116952094Y-91027594D01*
X116953404Y-91122861D01*
X116954792Y-91202718D01*
X116956260Y-91268040D01*
X116957811Y-91319706D01*
X116959445Y-91358591D01*
X116961167Y-91385572D01*
X116962976Y-91401526D01*
X116964876Y-91407328D01*
X116965092Y-91407384D01*
X116985441Y-91403079D01*
X117042302Y-91390402D01*
X117134100Y-91369715D01*
X117259259Y-91341378D01*
X117416202Y-91305752D01*
X117603354Y-91263198D01*
X117819138Y-91214077D01*
X118061979Y-91158749D01*
X118330300Y-91097574D01*
X118622525Y-91030914D01*
X118832308Y-90983039D01*
X118832308Y-88497284D01*
X118837962Y-88327547D01*
X118843615Y-88157810D01*
X119273461Y-88061426D01*
X119350367Y-88043522D01*
X119350367Y-87401891D01*
X119202485Y-87388972D01*
X119080700Y-87349277D01*
X118981002Y-87280940D01*
X118909007Y-87196584D01*
X118865654Y-87123638D01*
X118838036Y-87049373D01*
X118823658Y-86962739D01*
X118820027Y-86852686D01*
X118820847Y-86806077D01*
X118825367Y-86711452D01*
X118835296Y-86639978D01*
X118854065Y-86575778D01*
X118885109Y-86502977D01*
X118887501Y-86497852D01*
X118974969Y-86354790D01*
X119092257Y-86229672D01*
X119231257Y-86131042D01*
X119240583Y-86125896D01*
X119263386Y-86113523D01*
X119263386Y-85796354D01*
X119126886Y-85766179D01*
X119012556Y-85704118D01*
X118920185Y-85610121D01*
X118909007Y-85594430D01*
X118865654Y-85521485D01*
X118838036Y-85447219D01*
X118823658Y-85360585D01*
X118820027Y-85250532D01*
X118820847Y-85203923D01*
X118825367Y-85109298D01*
X118835296Y-85037824D01*
X118854065Y-84973624D01*
X118885109Y-84900824D01*
X118887501Y-84895699D01*
X118966177Y-84764925D01*
X119070413Y-84646575D01*
X119189863Y-84551515D01*
X119246164Y-84519058D01*
X119341846Y-84470572D01*
X119341846Y-84819639D01*
X119262953Y-84882124D01*
X119175924Y-84972053D01*
X119124585Y-85077026D01*
X119107391Y-85200226D01*
X119107384Y-85202836D01*
X119111017Y-85273159D01*
X119125518Y-85321675D01*
X119156292Y-85365271D01*
X119161115Y-85370729D01*
X119231559Y-85423383D01*
X119326126Y-85457037D01*
X119369374Y-85461988D01*
X119369374Y-83298656D01*
X119225570Y-83281181D01*
X119098153Y-83229531D01*
X118990503Y-83146379D01*
X118905997Y-83034398D01*
X118848014Y-82896260D01*
X118844395Y-82883317D01*
X118825672Y-82778574D01*
X118817208Y-82652112D01*
X118819008Y-82519919D01*
X118831076Y-82397984D01*
X118844225Y-82332581D01*
X118905618Y-82163344D01*
X118994881Y-82012972D01*
X119107890Y-81886687D01*
X119240522Y-81789710D01*
X119295007Y-81761721D01*
X119359946Y-81735357D01*
X119359946Y-81425813D01*
X119208465Y-81411498D01*
X119077347Y-81366527D01*
X118969375Y-81292648D01*
X118887333Y-81191608D01*
X118845904Y-81103086D01*
X118822702Y-80998839D01*
X118816263Y-80875322D01*
X118826319Y-80748436D01*
X118849906Y-80645795D01*
X118849906Y-79821077D01*
X118842649Y-79803038D01*
X118837098Y-79754900D01*
X118834122Y-79685632D01*
X118833846Y-79655000D01*
X118835044Y-79579947D01*
X118838239Y-79522547D01*
X118842837Y-79491772D01*
X118844870Y-79488923D01*
X118866009Y-79484791D01*
X118920450Y-79473103D01*
X119003381Y-79454922D01*
X119093909Y-79434873D01*
X119093909Y-78888695D01*
X119031969Y-78888524D01*
X118984671Y-78879786D01*
X118947381Y-78862743D01*
X118915466Y-78837656D01*
X118913848Y-78836118D01*
X118863449Y-78768026D01*
X118836887Y-78699349D01*
X118829862Y-78643792D01*
X118827654Y-78572585D01*
X118829745Y-78497730D01*
X118835615Y-78431227D01*
X118844746Y-78385077D01*
X118851016Y-78372671D01*
X118875151Y-78364938D01*
X118927442Y-78356050D01*
X118997079Y-78347806D01*
X119004807Y-78347065D01*
X119146461Y-78333788D01*
X119146461Y-78554182D01*
X119209961Y-78541616D01*
X119248825Y-78533532D01*
X119318598Y-78518628D01*
X119412023Y-78498472D01*
X119521844Y-78474628D01*
X119639807Y-78448881D01*
X120006154Y-78368710D01*
X120006154Y-78142606D01*
X120079423Y-78121978D01*
X120151447Y-78104135D01*
X120224054Y-78089572D01*
X120225961Y-78089254D01*
X120299231Y-78077159D01*
X120299231Y-77988298D01*
X120186884Y-77976340D01*
X120136479Y-77971566D01*
X120053833Y-77964432D01*
X119945676Y-77955488D01*
X119818736Y-77945283D01*
X119679740Y-77934368D01*
X119566538Y-77925657D01*
X119422794Y-77914576D01*
X119285821Y-77903787D01*
X119162349Y-77893838D01*
X119059106Y-77885278D01*
X118982820Y-77878652D01*
X118946192Y-77875163D01*
X118833846Y-77863394D01*
X118836442Y-77544846D01*
X119254107Y-77340908D01*
X119370564Y-77283216D01*
X119473703Y-77230530D01*
X119558822Y-77185383D01*
X119621222Y-77150309D01*
X119656203Y-77127840D01*
X119661963Y-77121100D01*
X119639284Y-77113993D01*
X119587045Y-77108532D01*
X119514753Y-77105546D01*
X119480530Y-77105231D01*
X119387737Y-77104069D01*
X119272637Y-77100933D01*
X119151917Y-77096344D01*
X119070634Y-77092419D01*
X118832364Y-77079607D01*
X118837990Y-76923774D01*
X118843615Y-76767940D01*
X119157744Y-76597274D01*
X119157744Y-76072483D01*
X119049694Y-76059874D01*
X118965068Y-76019313D01*
X118897311Y-75946701D01*
X118863125Y-75888219D01*
X118838010Y-75834561D01*
X118823296Y-75787301D01*
X118816912Y-75733554D01*
X118816786Y-75660433D01*
X118818505Y-75610538D01*
X118824626Y-75513744D01*
X118836396Y-75439570D01*
X118857509Y-75371613D01*
X118888297Y-75300614D01*
X118918265Y-75235984D01*
X118940453Y-75186939D01*
X118950789Y-75162509D01*
X118951077Y-75161402D01*
X118934306Y-75154463D01*
X118893824Y-75144820D01*
X118892461Y-75144546D01*
X118833846Y-75132823D01*
X118833846Y-74781121D01*
X118837970Y-74782688D01*
X118837970Y-74486581D01*
X118836043Y-74468772D01*
X118835708Y-74420763D01*
X118836964Y-74351400D01*
X118837970Y-74317933D01*
X118843615Y-74148789D01*
X119253923Y-74056127D01*
X119342626Y-74035938D01*
X119342626Y-73392732D01*
X119191658Y-73377364D01*
X119065038Y-73331580D01*
X118962388Y-73255226D01*
X118935281Y-73225209D01*
X118880164Y-73148111D01*
X118844503Y-73069430D01*
X118825413Y-72978580D01*
X118820010Y-72864979D01*
X118821177Y-72806487D01*
X118826137Y-72710443D01*
X118835464Y-72638918D01*
X118852296Y-72577372D01*
X118879772Y-72511267D01*
X118889255Y-72491102D01*
X118959692Y-72376658D01*
X119056942Y-72264447D01*
X119169865Y-72166004D01*
X119260171Y-72107019D01*
X119341846Y-72061807D01*
X119341790Y-72243788D01*
X119341331Y-72329081D01*
X119338406Y-72384290D01*
X119330592Y-72418407D01*
X119315470Y-72440427D01*
X119290618Y-72459341D01*
X119282285Y-72464846D01*
X119235803Y-72504867D01*
X119185884Y-72561677D01*
X119165110Y-72590311D01*
X119126711Y-72658802D01*
X119109996Y-72725529D01*
X119107384Y-72781781D01*
X119120769Y-72892831D01*
X119161110Y-72975612D01*
X119228687Y-73030410D01*
X119323780Y-73057513D01*
X119380295Y-73060769D01*
X119459077Y-73060769D01*
X119459077Y-72049194D01*
X119509021Y-72039771D01*
X119509021Y-69953269D01*
X119318448Y-69950285D01*
X119148669Y-69938932D01*
X119054666Y-69926946D01*
X118749069Y-69860121D01*
X118465637Y-69761299D01*
X118204772Y-69630938D01*
X117966876Y-69469498D01*
X117752354Y-69277438D01*
X117561606Y-69055216D01*
X117395036Y-68803293D01*
X117253047Y-68522127D01*
X117136042Y-68212177D01*
X117044422Y-67873903D01*
X116987719Y-67570461D01*
X116978720Y-67487246D01*
X116971469Y-67371779D01*
X116965970Y-67230847D01*
X116962230Y-67071235D01*
X116960256Y-66899730D01*
X116960054Y-66723118D01*
X116961630Y-66548185D01*
X116964991Y-66381718D01*
X116970143Y-66230504D01*
X116977093Y-66101327D01*
X116985846Y-66000975D01*
X116986239Y-65997615D01*
X117065727Y-65458878D01*
X117178465Y-64902531D01*
X117323783Y-64330369D01*
X117501013Y-63744185D01*
X117709484Y-63145774D01*
X117948527Y-62536929D01*
X118217473Y-61919443D01*
X118515652Y-61295112D01*
X118842395Y-60665729D01*
X119197033Y-60033087D01*
X119238815Y-59961500D01*
X119658754Y-59274175D01*
X120112076Y-58587239D01*
X120593643Y-57907662D01*
X121098320Y-57242413D01*
X121620970Y-56598462D01*
X122156456Y-55982778D01*
X122234893Y-55896231D01*
X122549165Y-55564062D01*
X122870990Y-55248453D01*
X123197471Y-54951594D01*
X123525710Y-54675676D01*
X123852807Y-54422892D01*
X124175866Y-54195432D01*
X124491987Y-53995488D01*
X124798274Y-53825251D01*
X125091827Y-53686914D01*
X125229865Y-53631541D01*
X125421820Y-53568241D01*
X125616294Y-53520639D01*
X125804666Y-53490100D01*
X125978316Y-53477987D01*
X126128621Y-53485662D01*
X126141231Y-53487448D01*
X126301368Y-53530712D01*
X126445965Y-53607890D01*
X126570090Y-53715287D01*
X126668809Y-53849207D01*
X126697713Y-53904328D01*
X126730541Y-53981765D01*
X126757606Y-54065623D01*
X126780109Y-54162206D01*
X126799250Y-54277819D01*
X126816229Y-54418764D01*
X126832244Y-54591346D01*
X126835115Y-54626231D01*
X126844795Y-54744946D01*
X126853652Y-54852156D01*
X126861111Y-54941023D01*
X126866598Y-55004707D01*
X126869539Y-55036367D01*
X126869558Y-55036538D01*
X126880104Y-55037828D01*
X126909029Y-55011584D01*
X126957195Y-54956797D01*
X127025467Y-54872457D01*
X127114706Y-54757555D01*
X127170097Y-54684846D01*
X127338418Y-54464931D01*
X127490399Y-54271434D01*
X127631299Y-54098210D01*
X127766375Y-53939110D01*
X127900887Y-53787988D01*
X128040091Y-53638698D01*
X128189247Y-53485092D01*
X128241057Y-53432899D01*
X128490852Y-53189228D01*
X128725575Y-52974879D01*
X128950331Y-52785710D01*
X129170223Y-52617578D01*
X129390357Y-52466339D01*
X129567450Y-52356282D01*
X129846556Y-52202987D01*
X130114091Y-52081348D01*
X130368883Y-51991306D01*
X130609762Y-51932802D01*
X130835556Y-51905777D01*
X131045093Y-51910173D01*
X131237201Y-51945932D01*
X131410709Y-52012993D01*
X131564444Y-52111299D01*
X131697237Y-52240791D01*
X131807914Y-52401411D01*
X131843802Y-52470332D01*
X131894985Y-52582621D01*
X131934709Y-52685833D01*
X131964553Y-52787975D01*
X131986094Y-52897053D01*
X132000911Y-53021072D01*
X132010582Y-53168040D01*
X132016685Y-53345961D01*
X132016726Y-53347598D01*
X132018662Y-53594357D01*
X132010838Y-53815805D01*
X131992247Y-54024714D01*
X131961884Y-54233855D01*
X131936110Y-54372231D01*
X131908749Y-54509000D01*
X131904567Y-54352692D01*
X131900386Y-54196384D01*
X131866537Y-54430846D01*
X131780728Y-54903709D01*
X131659009Y-55386078D01*
X131502590Y-55875249D01*
X131312679Y-56368514D01*
X131090487Y-56863168D01*
X130837223Y-57356505D01*
X130554096Y-57845819D01*
X130242316Y-58328404D01*
X129927637Y-58768888D01*
X129595620Y-59192034D01*
X129256713Y-59584230D01*
X128912547Y-59943865D01*
X128564754Y-60269325D01*
X128214963Y-60559000D01*
X127864806Y-60811278D01*
X127854992Y-60817801D01*
X127777398Y-60867821D01*
X127685552Y-60924748D01*
X127585004Y-60985396D01*
X127481302Y-61046578D01*
X127379995Y-61105110D01*
X127286632Y-61157805D01*
X127206761Y-61201477D01*
X127145931Y-61232941D01*
X127109691Y-61249011D01*
X127102148Y-61250046D01*
X127110176Y-61232459D01*
X127136588Y-61188077D01*
X127177889Y-61122485D01*
X127230590Y-61041268D01*
X127269226Y-60982859D01*
X127525505Y-60587065D01*
X127768783Y-60189137D01*
X127997504Y-59792298D01*
X128210112Y-59399774D01*
X128405050Y-59014786D01*
X128580762Y-58640559D01*
X128735690Y-58280315D01*
X128868278Y-57937280D01*
X128976970Y-57614675D01*
X129060209Y-57315725D01*
X129079209Y-57234615D01*
X129124068Y-56998958D01*
X129149381Y-56783370D01*
X129155505Y-56589879D01*
X129142797Y-56420513D01*
X129111615Y-56277300D01*
X129062314Y-56162269D01*
X128995253Y-56077448D01*
X128910789Y-56024864D01*
X128863842Y-56011609D01*
X128716834Y-56003001D01*
X128551587Y-56028882D01*
X128368167Y-56089220D01*
X128166643Y-56183981D01*
X127947083Y-56313131D01*
X127709555Y-56476639D01*
X127454128Y-56674469D01*
X127385549Y-56730895D01*
X127116500Y-56966624D01*
X126838884Y-57231970D01*
X126558600Y-57520247D01*
X126281542Y-57824770D01*
X126013609Y-58138853D01*
X125760695Y-58455810D01*
X125528698Y-58768955D01*
X125330050Y-59061461D01*
X125088110Y-59424102D01*
X124832028Y-59785326D01*
X124567574Y-60137599D01*
X124300517Y-60473387D01*
X124036629Y-60785157D01*
X123856022Y-60986000D01*
X123816899Y-61028102D01*
X123790148Y-61054731D01*
X123776279Y-61062788D01*
X123775805Y-61049176D01*
X123789236Y-61010798D01*
X123817083Y-60944554D01*
X123859856Y-60847348D01*
X123890144Y-60779080D01*
X124004365Y-60514024D01*
X124120814Y-60229654D01*
X124236159Y-59934888D01*
X124347063Y-59638647D01*
X124450192Y-59349847D01*
X124542212Y-59077408D01*
X124619787Y-58830248D01*
X124623668Y-58817231D01*
X124710306Y-58513595D01*
X124780499Y-58239775D01*
X124835202Y-57990593D01*
X124875367Y-57760873D01*
X124901948Y-57545439D01*
X124915896Y-57339114D01*
X124918610Y-57215077D01*
X124916622Y-57055655D01*
X124907873Y-56928244D01*
X124890766Y-56826121D01*
X124863703Y-56742564D01*
X124825087Y-56670848D01*
X124773568Y-56604529D01*
X124733022Y-56561256D01*
X124698716Y-56536158D01*
X124657073Y-56523395D01*
X124594513Y-56517127D01*
X124566448Y-56515460D01*
X124481758Y-56513871D01*
X124415369Y-56522779D01*
X124347139Y-56545664D01*
X124316911Y-56558584D01*
X124163105Y-56641626D01*
X123996599Y-56759657D01*
X123818624Y-56911158D01*
X123630408Y-57094608D01*
X123433185Y-57308487D01*
X123228184Y-57551276D01*
X123016636Y-57821454D01*
X122799772Y-58117503D01*
X122578823Y-58437900D01*
X122355019Y-58781128D01*
X122129591Y-59145666D01*
X121903770Y-59529993D01*
X121886784Y-59559692D01*
X121609846Y-60062332D01*
X121352872Y-60564358D01*
X121116319Y-61063950D01*
X120900643Y-61559288D01*
X120706301Y-62048551D01*
X120533751Y-62529918D01*
X120383448Y-63001570D01*
X120255851Y-63461687D01*
X120151415Y-63908447D01*
X120070598Y-64340030D01*
X120013856Y-64754616D01*
X119981647Y-65150385D01*
X119974427Y-65525516D01*
X119992653Y-65878188D01*
X120036783Y-66206582D01*
X120107272Y-66508877D01*
X120126680Y-66572699D01*
X120218163Y-66813931D01*
X120331803Y-67035487D01*
X120464374Y-67232221D01*
X120612650Y-67398990D01*
X120685993Y-67464847D01*
X120799283Y-67546852D01*
X120936271Y-67627435D01*
X121083841Y-67700109D01*
X121228876Y-67758388D01*
X121352928Y-67794635D01*
X121617580Y-67833545D01*
X121898576Y-67838246D01*
X122194759Y-67809467D01*
X122504971Y-67747937D01*
X122828053Y-67654384D01*
X123162849Y-67529538D01*
X123508199Y-67374128D01*
X123862948Y-67188882D01*
X124225935Y-66974531D01*
X124596005Y-66731802D01*
X124971999Y-66461425D01*
X125352758Y-66164129D01*
X125737127Y-65840643D01*
X126123945Y-65491695D01*
X126512057Y-65118016D01*
X126900303Y-64720333D01*
X127287527Y-64299376D01*
X127672570Y-63855874D01*
X127744460Y-63770231D01*
X128266942Y-63119873D01*
X128766296Y-62448679D01*
X129240360Y-61760220D01*
X129686974Y-61058070D01*
X130103979Y-60345801D01*
X130489214Y-59626985D01*
X130840518Y-58905195D01*
X131155731Y-58184003D01*
X131223872Y-58016154D01*
X131268948Y-57904441D01*
X131308793Y-57807552D01*
X131341309Y-57730432D01*
X131364400Y-57678028D01*
X131375969Y-57655285D01*
X131376908Y-57655256D01*
X131370954Y-57681535D01*
X131353841Y-57738864D01*
X131327523Y-57821478D01*
X131293956Y-57923617D01*
X131255094Y-58039518D01*
X131212891Y-58163419D01*
X131169301Y-58289557D01*
X131126281Y-58412171D01*
X131085783Y-58525498D01*
X131049764Y-58623775D01*
X131035777Y-58660923D01*
X130846361Y-59134067D01*
X130629471Y-59630207D01*
X130384425Y-60150893D01*
X130353520Y-60214231D01*
X129958351Y-60981282D01*
X129529128Y-61739218D01*
X129068149Y-62485014D01*
X128577716Y-63215643D01*
X128060128Y-63928081D01*
X127517686Y-64619301D01*
X126952688Y-65286279D01*
X126367437Y-65925989D01*
X125764230Y-66535405D01*
X125145370Y-67111502D01*
X125037307Y-67207194D01*
X124516361Y-67648475D01*
X124000455Y-68052013D01*
X123488393Y-68418639D01*
X122978981Y-68749187D01*
X122471022Y-69044488D01*
X122171329Y-69202620D01*
X121836685Y-69366198D01*
X121523122Y-69505666D01*
X121223258Y-69623686D01*
X120929710Y-69722919D01*
X120635093Y-69806028D01*
X120332026Y-69875674D01*
X120269923Y-69888188D01*
X120100840Y-69915343D01*
X119910684Y-69935464D01*
X119709922Y-69948217D01*
X119509021Y-69953269D01*
X119509021Y-72039771D01*
X119587664Y-72024931D01*
X119762496Y-72006057D01*
X119916659Y-72018163D01*
X120048372Y-72059865D01*
X120155853Y-72129775D01*
X120237323Y-72226510D01*
X120291001Y-72348681D01*
X120315107Y-72494905D01*
X120314798Y-72590868D01*
X120286555Y-72757933D01*
X120224146Y-72911627D01*
X120131045Y-73049086D01*
X120010725Y-73167447D01*
X119866657Y-73263843D01*
X119702316Y-73335412D01*
X119521175Y-73379287D01*
X119342626Y-73392732D01*
X119342626Y-74035938D01*
X119400799Y-74022697D01*
X119515674Y-73995729D01*
X119604746Y-73973456D01*
X119674213Y-73954112D01*
X119730275Y-73935928D01*
X119779131Y-73917139D01*
X119826978Y-73895976D01*
X119844360Y-73887812D01*
X119907779Y-73841073D01*
X119957819Y-73774007D01*
X119984579Y-73701226D01*
X119986615Y-73677839D01*
X119977405Y-73622226D01*
X119956836Y-73567858D01*
X119927057Y-73510271D01*
X120030105Y-73444759D01*
X120110090Y-73394177D01*
X120164033Y-73362952D01*
X120199134Y-73349901D01*
X120222596Y-73353839D01*
X120241620Y-73373584D01*
X120262546Y-73406563D01*
X120300927Y-73496681D01*
X120317062Y-73598168D01*
X120310200Y-73696804D01*
X120281995Y-73774408D01*
X120252001Y-73827968D01*
X120242811Y-73854556D01*
X120253634Y-73859773D01*
X120270708Y-73854479D01*
X120285491Y-73853732D01*
X120293857Y-73870108D01*
X120296928Y-73910388D01*
X120295829Y-73981357D01*
X120295131Y-74001967D01*
X120289461Y-74161003D01*
X119566538Y-74323544D01*
X119404483Y-74359961D01*
X119254803Y-74393559D01*
X119121685Y-74423401D01*
X119009318Y-74448550D01*
X118921887Y-74468069D01*
X118863581Y-74481021D01*
X118838586Y-74486469D01*
X118837970Y-74486581D01*
X118837970Y-74782688D01*
X118883964Y-74800176D01*
X118923850Y-74811511D01*
X118972205Y-74816849D01*
X119033813Y-74815671D01*
X119113458Y-74807457D01*
X119215924Y-74791689D01*
X119345995Y-74767847D01*
X119508456Y-74735413D01*
X119539311Y-74729075D01*
X119682328Y-74699899D01*
X119792779Y-74678312D01*
X119876283Y-74663595D01*
X119938458Y-74655029D01*
X119984922Y-74651895D01*
X120021294Y-74653474D01*
X120053191Y-74659046D01*
X120064517Y-74661854D01*
X120156067Y-74698697D01*
X120224747Y-74757449D01*
X120272797Y-74841861D01*
X120302460Y-74955683D01*
X120315016Y-75080763D01*
X120310248Y-75278095D01*
X120275087Y-75452364D01*
X120209919Y-75602785D01*
X120115130Y-75728573D01*
X119991107Y-75828940D01*
X119930359Y-75863343D01*
X119874819Y-75890627D01*
X119834571Y-75908803D01*
X119821188Y-75913384D01*
X119816619Y-75895323D01*
X119813249Y-75847031D01*
X119811579Y-75777351D01*
X119811511Y-75742423D01*
X119812252Y-75571461D01*
X119890973Y-75516985D01*
X119961417Y-75453156D01*
X120004353Y-75374787D01*
X120022617Y-75274785D01*
X120022278Y-75188762D01*
X120012977Y-75098562D01*
X119994158Y-75040692D01*
X119961046Y-75008698D01*
X119908868Y-74996122D01*
X119879081Y-74995077D01*
X119826840Y-74997195D01*
X119799491Y-75010576D01*
X119783900Y-75045760D01*
X119775605Y-75078115D01*
X119764408Y-75131607D01*
X119749829Y-75211956D01*
X119733938Y-75307325D01*
X119721767Y-75385846D01*
X119704583Y-75486903D01*
X119684387Y-75584338D01*
X119664011Y-75665410D01*
X119650158Y-75708210D01*
X119581697Y-75837681D01*
X119489201Y-75942473D01*
X119377793Y-76018797D01*
X119252600Y-76062861D01*
X119157744Y-76072483D01*
X119157744Y-76597274D01*
X119556769Y-76380482D01*
X119710104Y-76297343D01*
X119852829Y-76220281D01*
X119981286Y-76151247D01*
X120091815Y-76092194D01*
X120180756Y-76045073D01*
X120244449Y-76011836D01*
X120279237Y-75994435D01*
X120284577Y-75992281D01*
X120291265Y-76009947D01*
X120296352Y-76057663D01*
X120299020Y-76126412D01*
X120299231Y-76153828D01*
X120299231Y-76316118D01*
X119410231Y-76782846D01*
X119556769Y-76794946D01*
X119635779Y-76799975D01*
X119739812Y-76804503D01*
X119854812Y-76808007D01*
X119957307Y-76809867D01*
X120080371Y-76811227D01*
X120169751Y-76814031D01*
X120230819Y-76821086D01*
X120268944Y-76835197D01*
X120289497Y-76859171D01*
X120297847Y-76895814D01*
X120299365Y-76947932D01*
X120299231Y-76988540D01*
X120299231Y-77140831D01*
X120069654Y-77252380D01*
X119953774Y-77308747D01*
X119822522Y-77372691D01*
X119694514Y-77435137D01*
X119615384Y-77473795D01*
X119390692Y-77583661D01*
X119556769Y-77596736D01*
X119639830Y-77602607D01*
X119748765Y-77609355D01*
X119870405Y-77616209D01*
X119991581Y-77622398D01*
X120011038Y-77623322D01*
X120299231Y-77636832D01*
X120299231Y-77988298D01*
X120299231Y-78077159D01*
X120299231Y-78187118D01*
X120301952Y-78246746D01*
X120308985Y-78286679D01*
X120316143Y-78297077D01*
X120340932Y-78292993D01*
X120395517Y-78281900D01*
X120471610Y-78265536D01*
X120553047Y-78247417D01*
X120641328Y-78228242D01*
X120715532Y-78213539D01*
X120767454Y-78204839D01*
X120788494Y-78203455D01*
X120786202Y-78221752D01*
X120767933Y-78266782D01*
X120736910Y-78331242D01*
X120706517Y-78389227D01*
X120609086Y-78569301D01*
X120454158Y-78602593D01*
X120299231Y-78635886D01*
X120299231Y-78719728D01*
X120296871Y-78772950D01*
X120283377Y-78800645D01*
X120249124Y-78816336D01*
X120225961Y-78822669D01*
X120153604Y-78839816D01*
X120080816Y-78854654D01*
X120079423Y-78854904D01*
X120006154Y-78868041D01*
X120006154Y-78787713D01*
X120003945Y-78737953D01*
X119998410Y-78709768D01*
X119995945Y-78707384D01*
X119974687Y-78711486D01*
X119921038Y-78722953D01*
X119840719Y-78740531D01*
X119739453Y-78762964D01*
X119622960Y-78788996D01*
X119580752Y-78798478D01*
X119413912Y-78835190D01*
X119280247Y-78862289D01*
X119175124Y-78880037D01*
X119093909Y-78888695D01*
X119093909Y-79434873D01*
X119109989Y-79431311D01*
X119235461Y-79403333D01*
X119374986Y-79372049D01*
X119420000Y-79361923D01*
X119562880Y-79329836D01*
X119693189Y-79300728D01*
X119806114Y-79275660D01*
X119896843Y-79255695D01*
X119960563Y-79241896D01*
X119992461Y-79235326D01*
X119995130Y-79234923D01*
X120000637Y-79217060D01*
X120004589Y-79170162D01*
X120006152Y-79104264D01*
X120006154Y-79102229D01*
X120006154Y-78969534D01*
X120152692Y-78938914D01*
X120299231Y-78908295D01*
X120299231Y-79172153D01*
X120376245Y-79152604D01*
X120443530Y-79128836D01*
X120486216Y-79093313D01*
X120509720Y-79037731D01*
X120519460Y-78953787D01*
X120520262Y-78931842D01*
X120523923Y-78800620D01*
X120660692Y-78746227D01*
X120726681Y-78720788D01*
X120776650Y-78703042D01*
X120801364Y-78696237D01*
X120802422Y-78696429D01*
X120807043Y-78716561D01*
X120814825Y-78765783D01*
X120824264Y-78834389D01*
X120826467Y-78851544D01*
X120834824Y-79000192D01*
X120817743Y-79124424D01*
X120773980Y-79230516D01*
X120741645Y-79278797D01*
X120678918Y-79348420D01*
X120606343Y-79400620D01*
X120513020Y-79442039D01*
X120431984Y-79467480D01*
X120309000Y-79502070D01*
X120303111Y-79602476D01*
X120298057Y-79661850D01*
X120286723Y-79694062D01*
X120261320Y-79710998D01*
X120224957Y-79721709D01*
X120152607Y-79738819D01*
X120079743Y-79753616D01*
X120079423Y-79753674D01*
X120006154Y-79766810D01*
X120006154Y-79666571D01*
X120004837Y-79608120D01*
X119998028Y-79579971D01*
X119981441Y-79573366D01*
X119962192Y-79576759D01*
X119906682Y-79589603D01*
X119825030Y-79608071D01*
X119723051Y-79630887D01*
X119606561Y-79656772D01*
X119481375Y-79684449D01*
X119353310Y-79712641D01*
X119228182Y-79740070D01*
X119111805Y-79765459D01*
X119009996Y-79787531D01*
X118928571Y-79805007D01*
X118873345Y-79816611D01*
X118850134Y-79821065D01*
X118849906Y-79821077D01*
X118849906Y-80645795D01*
X118852598Y-80634080D01*
X118853947Y-80630097D01*
X118930372Y-80464514D01*
X119036318Y-80322864D01*
X119169152Y-80206877D01*
X119326240Y-80118279D01*
X119504947Y-80058801D01*
X119702641Y-80030170D01*
X119771692Y-80027785D01*
X119865307Y-80028431D01*
X119932018Y-80033557D01*
X119983919Y-80045150D01*
X120033103Y-80065198D01*
X120049828Y-80073512D01*
X120130744Y-80121314D01*
X120190024Y-80175259D01*
X120240480Y-80248347D01*
X120263229Y-80290000D01*
X120285132Y-80337755D01*
X120298824Y-80386266D01*
X120306114Y-80446749D01*
X120308805Y-80530423D01*
X120309000Y-80574211D01*
X120308160Y-80666290D01*
X120303766Y-80732499D01*
X120293005Y-80786038D01*
X120273063Y-80840107D01*
X120241128Y-80907907D01*
X120235420Y-80919487D01*
X120140613Y-81068517D01*
X120016588Y-81194992D01*
X119867662Y-81296413D01*
X119698155Y-81370283D01*
X119512385Y-81414106D01*
X119359946Y-81425813D01*
X119359946Y-81735357D01*
X119362616Y-81734272D01*
X119423069Y-81720546D01*
X119494257Y-81717514D01*
X119545314Y-81719351D01*
X119626864Y-81725872D01*
X119683615Y-81738252D01*
X119729808Y-81760669D01*
X119760909Y-81782594D01*
X119823577Y-81839543D01*
X119877160Y-81910380D01*
X119925040Y-82001458D01*
X119970598Y-82119132D01*
X120013784Y-82257787D01*
X120053634Y-82394426D01*
X120085366Y-82498186D01*
X120111009Y-82573922D01*
X120132591Y-82626490D01*
X120152142Y-82660748D01*
X120171690Y-82681550D01*
X120193266Y-82693755D01*
X120196456Y-82695013D01*
X120262019Y-82704706D01*
X120327954Y-82681006D01*
X120384733Y-82637305D01*
X120451792Y-82556597D01*
X120493473Y-82457809D01*
X120512159Y-82334347D01*
X120513725Y-82280424D01*
X120506109Y-82157010D01*
X120483309Y-82060346D01*
X120446568Y-81994437D01*
X120417778Y-81971012D01*
X120376384Y-81959090D01*
X120314277Y-81951816D01*
X120280977Y-81950769D01*
X120182000Y-81950769D01*
X120182000Y-81603514D01*
X120266944Y-81590776D01*
X120400208Y-81588336D01*
X120520927Y-81620382D01*
X120626423Y-81683591D01*
X120714020Y-81774638D01*
X120781038Y-81890199D01*
X120824803Y-82026950D01*
X120842635Y-82181567D01*
X120838128Y-82299946D01*
X120805619Y-82484739D01*
X120747975Y-82647854D01*
X120667457Y-82786525D01*
X120566327Y-82897989D01*
X120446847Y-82979479D01*
X120311278Y-83028231D01*
X120232784Y-83039923D01*
X120135019Y-83044141D01*
X120062588Y-83035951D01*
X120002739Y-83011701D01*
X119942724Y-82967742D01*
X119924392Y-82951619D01*
X119879906Y-82906150D01*
X119841032Y-82852630D01*
X119805026Y-82785098D01*
X119769144Y-82697594D01*
X119730643Y-82584157D01*
X119686781Y-82438827D01*
X119684063Y-82429461D01*
X119653597Y-82330195D01*
X119622817Y-82240067D01*
X119595030Y-82168139D01*
X119573540Y-82123471D01*
X119570953Y-82119524D01*
X119543369Y-82086056D01*
X119513671Y-82071297D01*
X119467055Y-82070140D01*
X119435531Y-82072800D01*
X119359583Y-82087847D01*
X119300776Y-82121562D01*
X119276166Y-82143533D01*
X119215272Y-82224300D01*
X119172259Y-82325782D01*
X119147157Y-82439777D01*
X119139995Y-82558084D01*
X119150803Y-82672504D01*
X119179610Y-82774834D01*
X119226447Y-82856875D01*
X119273434Y-82900163D01*
X119323599Y-82921743D01*
X119392779Y-82938317D01*
X119431569Y-82943307D01*
X119537231Y-82952070D01*
X119537231Y-83113448D01*
X119535782Y-83199187D01*
X119526991Y-83253210D01*
X119504191Y-83282875D01*
X119460715Y-83295538D01*
X119389896Y-83298554D01*
X119369374Y-83298656D01*
X119369374Y-85461988D01*
X119415115Y-85467226D01*
X119459077Y-85467692D01*
X119459077Y-84961009D01*
X119459254Y-84806631D01*
X119459981Y-84686857D01*
X119461556Y-84597215D01*
X119464273Y-84533235D01*
X119468428Y-84490445D01*
X119474318Y-84464372D01*
X119482238Y-84450545D01*
X119492485Y-84444493D01*
X119493269Y-84444253D01*
X119579747Y-84424102D01*
X119678627Y-84409068D01*
X119774632Y-84400835D01*
X119852487Y-84401088D01*
X119868601Y-84402857D01*
X120008746Y-84441318D01*
X120128105Y-84511050D01*
X120222971Y-84609158D01*
X120289174Y-84731529D01*
X120315370Y-84844140D01*
X120318841Y-84974804D01*
X120300646Y-85110567D01*
X120261842Y-85238474D01*
X120244639Y-85276864D01*
X120149388Y-85426826D01*
X120023275Y-85554710D01*
X119868979Y-85658493D01*
X119689177Y-85736150D01*
X119603739Y-85761249D01*
X119422267Y-85794693D01*
X119263386Y-85796354D01*
X119263386Y-86113523D01*
X119341846Y-86070946D01*
X119341846Y-86436190D01*
X119281422Y-86471883D01*
X119235349Y-86509723D01*
X119186189Y-86565778D01*
X119164192Y-86597152D01*
X119120142Y-86693776D01*
X119103809Y-86794430D01*
X119115377Y-86888931D01*
X119155029Y-86967101D01*
X119157486Y-86970083D01*
X119227009Y-87025278D01*
X119319998Y-87060018D01*
X119405346Y-87069737D01*
X119459077Y-87069846D01*
X119459077Y-86057744D01*
X119554689Y-86034806D01*
X119662986Y-86017472D01*
X119782391Y-86012106D01*
X119896353Y-86018688D01*
X119982145Y-86035277D01*
X120077104Y-86080062D01*
X120168554Y-86151705D01*
X120243474Y-86239162D01*
X120265712Y-86275753D01*
X120286568Y-86321037D01*
X120299583Y-86369359D01*
X120306455Y-86431580D01*
X120308883Y-86518564D01*
X120309000Y-86552488D01*
X120307999Y-86645772D01*
X120303343Y-86712736D01*
X120292550Y-86766114D01*
X120273142Y-86818647D01*
X120245923Y-86876409D01*
X120154219Y-87020097D01*
X120032177Y-87146122D01*
X119885912Y-87250895D01*
X119721541Y-87330828D01*
X119545179Y-87382332D01*
X119362942Y-87401818D01*
X119350367Y-87401891D01*
X119350367Y-88043522D01*
X119404798Y-88030850D01*
X119529465Y-87999744D01*
X119640227Y-87970075D01*
X119729846Y-87943809D01*
X119791086Y-87922911D01*
X119804872Y-87917043D01*
X119898635Y-87857234D01*
X119958854Y-87784218D01*
X119983913Y-87701651D01*
X119972197Y-87613194D01*
X119955867Y-87575060D01*
X119936946Y-87534053D01*
X119930932Y-87511598D01*
X119931444Y-87510691D01*
X119950029Y-87499129D01*
X119993861Y-87472721D01*
X120054548Y-87436512D01*
X120074538Y-87424640D01*
X120142658Y-87385122D01*
X120185681Y-87363932D01*
X120211684Y-87358745D01*
X120228742Y-87367235D01*
X120237816Y-87377633D01*
X120288097Y-87467826D01*
X120314547Y-87571063D01*
X120315908Y-87674988D01*
X120290922Y-87767250D01*
X120279619Y-87788357D01*
X120250210Y-87839991D01*
X120242913Y-87864862D01*
X120257132Y-87868008D01*
X120270708Y-87863556D01*
X120285479Y-87862809D01*
X120293845Y-87879168D01*
X120296926Y-87919409D01*
X120295842Y-87990309D01*
X120295131Y-88011400D01*
X120289461Y-88170792D01*
X119613581Y-88320812D01*
X119454508Y-88356163D01*
X119305783Y-88389294D01*
X119172155Y-88419143D01*
X119058373Y-88444644D01*
X118969183Y-88464735D01*
X118909334Y-88478351D01*
X118885004Y-88484058D01*
X118832308Y-88497284D01*
X118832308Y-90983039D01*
X118857508Y-90977288D01*
X118857508Y-89941862D01*
X118845025Y-89931825D01*
X118838255Y-89897831D01*
X118836559Y-89834309D01*
X118837970Y-89771662D01*
X118843615Y-89601324D01*
X119087846Y-89547006D01*
X119202994Y-89521351D01*
X119325523Y-89493977D01*
X119439175Y-89468519D01*
X119512807Y-89451971D01*
X119693538Y-89411254D01*
X119693538Y-88535975D01*
X119747269Y-88523937D01*
X119805033Y-88510351D01*
X119868923Y-88494485D01*
X119869384Y-88494366D01*
X119913363Y-88482666D01*
X119946777Y-88475970D01*
X119971070Y-88478630D01*
X119987688Y-88494997D01*
X119998072Y-88529420D01*
X120003669Y-88586252D01*
X120005920Y-88669841D01*
X120006271Y-88784539D01*
X120006154Y-88906461D01*
X120006886Y-89031330D01*
X120008936Y-89141939D01*
X120012085Y-89232711D01*
X120016113Y-89298069D01*
X120020801Y-89332438D01*
X120023066Y-89336308D01*
X120047901Y-89332225D01*
X120102450Y-89321146D01*
X120178341Y-89304824D01*
X120256365Y-89287461D01*
X120343397Y-89268020D01*
X120415730Y-89252249D01*
X120465279Y-89241884D01*
X120483683Y-89238615D01*
X120486618Y-89219933D01*
X120489255Y-89167307D01*
X120491484Y-89085873D01*
X120493193Y-88980764D01*
X120494273Y-88857113D01*
X120494615Y-88731368D01*
X120494615Y-88224121D01*
X120567884Y-88205925D01*
X120637080Y-88189007D01*
X120712611Y-88170905D01*
X120724440Y-88168110D01*
X120807726Y-88148491D01*
X120802594Y-88833591D01*
X120797461Y-89518692D01*
X119840077Y-89730208D01*
X119651995Y-89771656D01*
X119475162Y-89810422D01*
X119313311Y-89845701D01*
X119170172Y-89876691D01*
X119049477Y-89902587D01*
X118954959Y-89922586D01*
X118890349Y-89935883D01*
X118859378Y-89941675D01*
X118857508Y-89941862D01*
X118857508Y-90977288D01*
X118937078Y-90959129D01*
X119272383Y-90882580D01*
X119626865Y-90801628D01*
X119998946Y-90716633D01*
X120387051Y-90627956D01*
X120789604Y-90535958D01*
X121205028Y-90440999D01*
X121631748Y-90343440D01*
X121902291Y-90281577D01*
X121902291Y-89169419D01*
X121867769Y-89168309D01*
X121840629Y-89164525D01*
X121819250Y-89158365D01*
X121802012Y-89150131D01*
X121787295Y-89140121D01*
X121773478Y-89128636D01*
X121758941Y-89115976D01*
X121750261Y-89108789D01*
X121655329Y-89009322D01*
X121576630Y-88878211D01*
X121516417Y-88720300D01*
X121476940Y-88540436D01*
X121472954Y-88511924D01*
X121469980Y-88469041D01*
X121467263Y-88390425D01*
X121464805Y-88279416D01*
X121462607Y-88139357D01*
X121460668Y-87973591D01*
X121458990Y-87785458D01*
X121457574Y-87578301D01*
X121456419Y-87355463D01*
X121455528Y-87120284D01*
X121454900Y-86876107D01*
X121454536Y-86626275D01*
X121454438Y-86374128D01*
X121454604Y-86123010D01*
X121455038Y-85876262D01*
X121455738Y-85637225D01*
X121456706Y-85409243D01*
X121457942Y-85195657D01*
X121459448Y-84999810D01*
X121461224Y-84825042D01*
X121463270Y-84674697D01*
X121465587Y-84552116D01*
X121468176Y-84460641D01*
X121471038Y-84403614D01*
X121472086Y-84392564D01*
X121476423Y-84368417D01*
X121476423Y-82595351D01*
X121469297Y-82587118D01*
X121463601Y-82560127D01*
X121459205Y-82511121D01*
X121455979Y-82436845D01*
X121453792Y-82334041D01*
X121452515Y-82199454D01*
X121452018Y-82029826D01*
X121452000Y-81983912D01*
X121452000Y-81372285D01*
X121461074Y-81370278D01*
X121461074Y-76265077D01*
X121459892Y-76245945D01*
X121458755Y-76190174D01*
X121457673Y-76100202D01*
X121456655Y-75978468D01*
X121455712Y-75827410D01*
X121454852Y-75649465D01*
X121454087Y-75447072D01*
X121453426Y-75222669D01*
X121452878Y-74978694D01*
X121452455Y-74717585D01*
X121452164Y-74441780D01*
X121452017Y-74153718D01*
X121452000Y-74016036D01*
X121452000Y-71766994D01*
X121495961Y-71777603D01*
X121530377Y-71784235D01*
X121595310Y-71795305D01*
X121682629Y-71809477D01*
X121784203Y-71825416D01*
X121828115Y-71832156D01*
X122116307Y-71876101D01*
X122116307Y-74882959D01*
X122179807Y-74872132D01*
X122204941Y-74866884D01*
X122266386Y-74853582D01*
X122362302Y-74832632D01*
X122490851Y-74804439D01*
X122650194Y-74769410D01*
X122838490Y-74727951D01*
X123053902Y-74680467D01*
X123294590Y-74627365D01*
X123558715Y-74569050D01*
X123844437Y-74505929D01*
X124149918Y-74438408D01*
X124473318Y-74366892D01*
X124812798Y-74291787D01*
X125166519Y-74213501D01*
X125532642Y-74132437D01*
X125909328Y-74049003D01*
X126085897Y-74009883D01*
X126436954Y-73932110D01*
X126436954Y-71236425D01*
X125740236Y-71232708D01*
X125036848Y-71205346D01*
X124568384Y-71174029D01*
X123681785Y-71088423D01*
X122816542Y-70971518D01*
X121970016Y-70822856D01*
X121139571Y-70641982D01*
X120426231Y-70457540D01*
X120133154Y-70376097D01*
X120328538Y-70343158D01*
X120438704Y-70322937D01*
X120565246Y-70297201D01*
X120686752Y-70270377D01*
X120729077Y-70260352D01*
X121125358Y-70149472D01*
X121536612Y-70006465D01*
X121958679Y-69833275D01*
X122387399Y-69631849D01*
X122818612Y-69404130D01*
X123248158Y-69152065D01*
X123640307Y-68898976D01*
X123698796Y-68860618D01*
X123737721Y-68841310D01*
X123769733Y-68837980D01*
X123807482Y-68847559D01*
X123825923Y-68853932D01*
X124016675Y-68918935D01*
X124238772Y-68991174D01*
X124485574Y-69068692D01*
X124750447Y-69149531D01*
X125026752Y-69231735D01*
X125307854Y-69313347D01*
X125587114Y-69392410D01*
X125857898Y-69466967D01*
X126113566Y-69535062D01*
X126287769Y-69579798D01*
X126985906Y-69748309D01*
X127654205Y-69894261D01*
X128294541Y-70017932D01*
X128908784Y-70119601D01*
X129498809Y-70199546D01*
X130066488Y-70258045D01*
X130613693Y-70295375D01*
X131142298Y-70311815D01*
X131223334Y-70312514D01*
X131390564Y-70313283D01*
X131390564Y-57618872D01*
X131378948Y-57616190D01*
X131377538Y-57605846D01*
X131384687Y-57589764D01*
X131390564Y-57592820D01*
X131392902Y-57616008D01*
X131390564Y-57618872D01*
X131390564Y-70313283D01*
X131393373Y-70313296D01*
X131410102Y-70313415D01*
X131410102Y-57560256D01*
X131398487Y-57557574D01*
X131397077Y-57547231D01*
X131404226Y-57531148D01*
X131410102Y-57534205D01*
X131412441Y-57557393D01*
X131410102Y-57560256D01*
X131410102Y-70313415D01*
X131525831Y-70314246D01*
X131622191Y-70316423D01*
X131683939Y-70320886D01*
X131712559Y-70328693D01*
X131709538Y-70340903D01*
X131676358Y-70358575D01*
X131614506Y-70382767D01*
X131525466Y-70414538D01*
X131418995Y-70452016D01*
X130881114Y-70626338D01*
X130313124Y-70779486D01*
X129717953Y-70911151D01*
X129098533Y-71021025D01*
X128457792Y-71108798D01*
X127798663Y-71174162D01*
X127124073Y-71216807D01*
X126436954Y-71236425D01*
X126436954Y-73932110D01*
X126466008Y-73925673D01*
X126835943Y-73843740D01*
X127193894Y-73764486D01*
X127538055Y-73688309D01*
X127866620Y-73615608D01*
X128177783Y-73546782D01*
X128469736Y-73482230D01*
X128740674Y-73422351D01*
X128988790Y-73367545D01*
X129212277Y-73318210D01*
X129409330Y-73274746D01*
X129578141Y-73237551D01*
X129716905Y-73207026D01*
X129823814Y-73183567D01*
X129897063Y-73167576D01*
X129934845Y-73159451D01*
X129939858Y-73158461D01*
X129942642Y-73177223D01*
X129945179Y-73230399D01*
X129947383Y-73313327D01*
X129949168Y-73421345D01*
X129950447Y-73549792D01*
X129951135Y-73694005D01*
X129951231Y-73773551D01*
X129951231Y-74388640D01*
X129907269Y-74398907D01*
X129877782Y-74405557D01*
X129812814Y-74420039D01*
X129714460Y-74441890D01*
X129584817Y-74470646D01*
X129425983Y-74505845D01*
X129240053Y-74547023D01*
X129029123Y-74593716D01*
X128795291Y-74645462D01*
X128540654Y-74701797D01*
X128267306Y-74762259D01*
X127977346Y-74826383D01*
X127672869Y-74893707D01*
X127355972Y-74963768D01*
X127028751Y-75036102D01*
X126693304Y-75110246D01*
X126351727Y-75185736D01*
X126006115Y-75262110D01*
X125658566Y-75338905D01*
X125311177Y-75415657D01*
X124966043Y-75491902D01*
X124625261Y-75567179D01*
X124290928Y-75641022D01*
X123965141Y-75712970D01*
X123649995Y-75782559D01*
X123347587Y-75849326D01*
X123060015Y-75912807D01*
X122789373Y-75972540D01*
X122537760Y-76028061D01*
X122307271Y-76078907D01*
X122100003Y-76124614D01*
X121918053Y-76164720D01*
X121763516Y-76198761D01*
X121638490Y-76226274D01*
X121545071Y-76246796D01*
X121485356Y-76259863D01*
X121461441Y-76265013D01*
X121461074Y-76265077D01*
X121461074Y-81370278D01*
X123107884Y-81005862D01*
X123356540Y-80950811D01*
X123594650Y-80898042D01*
X123819399Y-80848183D01*
X124027968Y-80801860D01*
X124217540Y-80759702D01*
X124385297Y-80722336D01*
X124528421Y-80690389D01*
X124644095Y-80664489D01*
X124729501Y-80645263D01*
X124781821Y-80633340D01*
X124797961Y-80629480D01*
X124803982Y-80626046D01*
X124809255Y-80617853D01*
X124813830Y-80602463D01*
X124817756Y-80577438D01*
X124821085Y-80540339D01*
X124823866Y-80488729D01*
X124826150Y-80420169D01*
X124827985Y-80332222D01*
X124829422Y-80222448D01*
X124830511Y-80088410D01*
X124831302Y-79927669D01*
X124831845Y-79737787D01*
X124832191Y-79516327D01*
X124832388Y-79260849D01*
X124832487Y-78968916D01*
X124832492Y-78945414D01*
X124832779Y-78666622D01*
X124833506Y-78401151D01*
X124834642Y-78151799D01*
X124836158Y-77921365D01*
X124838024Y-77712650D01*
X124840210Y-77528452D01*
X124842687Y-77371571D01*
X124845426Y-77244806D01*
X124848395Y-77150956D01*
X124851567Y-77092820D01*
X124852226Y-77085692D01*
X124887736Y-76862832D01*
X124944464Y-76662865D01*
X125020902Y-76488247D01*
X125115540Y-76341431D01*
X125226872Y-76224873D01*
X125353387Y-76141027D01*
X125457384Y-76101072D01*
X125491340Y-76092739D01*
X125560713Y-76076614D01*
X125662758Y-76053312D01*
X125794730Y-76023447D01*
X125953885Y-75987634D01*
X126137476Y-75946488D01*
X126342760Y-75900622D01*
X126566992Y-75850652D01*
X126807426Y-75797193D01*
X127061318Y-75740858D01*
X127325923Y-75682263D01*
X127479006Y-75648416D01*
X127815774Y-75574146D01*
X128116092Y-75508246D01*
X128381602Y-75450376D01*
X128613949Y-75400195D01*
X128814774Y-75357365D01*
X128985722Y-75321543D01*
X129128436Y-75292392D01*
X129244558Y-75269569D01*
X129335733Y-75252736D01*
X129403603Y-75241552D01*
X129449812Y-75235677D01*
X129476003Y-75234770D01*
X129477021Y-75234872D01*
X129582758Y-75265895D01*
X129678821Y-75332091D01*
X129763169Y-75430307D01*
X129833761Y-75557393D01*
X129888559Y-75710196D01*
X129925521Y-75885566D01*
X129932408Y-75938376D01*
X129936004Y-75991483D01*
X129939147Y-76083354D01*
X129941834Y-76213679D01*
X129944063Y-76382148D01*
X129945832Y-76588449D01*
X129947140Y-76832274D01*
X129947985Y-77113311D01*
X129948364Y-77431250D01*
X129948277Y-77785782D01*
X129947721Y-78176596D01*
X129947178Y-78421791D01*
X129941461Y-80725045D01*
X125721154Y-81660104D01*
X125322397Y-81748430D01*
X124933637Y-81834496D01*
X124556606Y-81917920D01*
X124193032Y-81998322D01*
X123844647Y-82075320D01*
X123513180Y-82148533D01*
X123200361Y-82217579D01*
X122907920Y-82282078D01*
X122637588Y-82341649D01*
X122391095Y-82395909D01*
X122170170Y-82444479D01*
X121976545Y-82486976D01*
X121811949Y-82523020D01*
X121678111Y-82552229D01*
X121576764Y-82574222D01*
X121509635Y-82588618D01*
X121478457Y-82595036D01*
X121476423Y-82595351D01*
X121476423Y-84368417D01*
X121509607Y-84183654D01*
X121568256Y-83991826D01*
X121645773Y-83821455D01*
X121739899Y-83676916D01*
X121848377Y-83562582D01*
X121931466Y-83502966D01*
X121955264Y-83492428D01*
X121997609Y-83478404D01*
X122060315Y-83460465D01*
X122145196Y-83438180D01*
X122254065Y-83411122D01*
X122388736Y-83378860D01*
X122551022Y-83340965D01*
X122742737Y-83297008D01*
X122965694Y-83246560D01*
X123221707Y-83189192D01*
X123512589Y-83124473D01*
X123787620Y-83063582D01*
X124046099Y-83006493D01*
X124294635Y-82951665D01*
X124530454Y-82899706D01*
X124750782Y-82851224D01*
X124952845Y-82806828D01*
X125133870Y-82767125D01*
X125291082Y-82732725D01*
X125421708Y-82704235D01*
X125522974Y-82682263D01*
X125592106Y-82667418D01*
X125626331Y-82660309D01*
X125628478Y-82659913D01*
X125692110Y-82648998D01*
X125687093Y-84032373D01*
X125682077Y-85415747D01*
X125398769Y-85479817D01*
X125296329Y-85502546D01*
X125205571Y-85521863D01*
X125134207Y-85536190D01*
X125089947Y-85543947D01*
X125081269Y-85544867D01*
X125072544Y-85543067D01*
X125065439Y-85534711D01*
X125059788Y-85516188D01*
X125055425Y-85483887D01*
X125052187Y-85434199D01*
X125049908Y-85363511D01*
X125048422Y-85268214D01*
X125047565Y-85144696D01*
X125047172Y-84989347D01*
X125047077Y-84798557D01*
X125047077Y-84048436D01*
X123581722Y-84372180D01*
X122116367Y-84695923D01*
X122116307Y-87933775D01*
X122160269Y-87922926D01*
X122186202Y-87917022D01*
X122247162Y-87903411D01*
X122340014Y-87882786D01*
X122461621Y-87855842D01*
X122608846Y-87823271D01*
X122778555Y-87785767D01*
X122967611Y-87744023D01*
X123172878Y-87698734D01*
X123391220Y-87650591D01*
X123581692Y-87608618D01*
X124065395Y-87502020D01*
X124536300Y-87398168D01*
X124993051Y-87297364D01*
X125434290Y-87199911D01*
X125858660Y-87106109D01*
X126264804Y-87016260D01*
X126651364Y-86930666D01*
X127016983Y-86849629D01*
X127360304Y-86773450D01*
X127679970Y-86702432D01*
X127974623Y-86636875D01*
X128242907Y-86577081D01*
X128483463Y-86523353D01*
X128694934Y-86475991D01*
X128875963Y-86435298D01*
X129025194Y-86401575D01*
X129141268Y-86375123D01*
X129222828Y-86356246D01*
X129268518Y-86345243D01*
X129278421Y-86342399D01*
X129279701Y-86321979D01*
X129280807Y-86265383D01*
X129281730Y-86175512D01*
X129282465Y-86055267D01*
X129283005Y-85907549D01*
X129283343Y-85735259D01*
X129283473Y-85541298D01*
X129283387Y-85328566D01*
X129283080Y-85099965D01*
X129282544Y-84858395D01*
X129282152Y-84721923D01*
X129277154Y-83110176D01*
X128329538Y-83321237D01*
X128143277Y-83362712D01*
X127968951Y-83401509D01*
X127810208Y-83436818D01*
X127670694Y-83467828D01*
X127554057Y-83493728D01*
X127463943Y-83513710D01*
X127404000Y-83526963D01*
X127377874Y-83532676D01*
X127377038Y-83532842D01*
X127375858Y-83514205D01*
X127374780Y-83461086D01*
X127373841Y-83378080D01*
X127373075Y-83269782D01*
X127372519Y-83140788D01*
X127372208Y-82995692D01*
X127372154Y-82901647D01*
X127372154Y-82269910D01*
X128353961Y-82051696D01*
X128547142Y-82009160D01*
X128731362Y-81969363D01*
X128902604Y-81933122D01*
X129056847Y-81901251D01*
X129190072Y-81874566D01*
X129298260Y-81853882D01*
X129377392Y-81840015D01*
X129423448Y-81833780D01*
X129429355Y-81833510D01*
X129545016Y-81852126D01*
X129649446Y-81906379D01*
X129740855Y-81993989D01*
X129817456Y-82112674D01*
X129877459Y-82260152D01*
X129919076Y-82434142D01*
X129923903Y-82464245D01*
X129928992Y-82518690D01*
X129933604Y-82608792D01*
X129937740Y-82731134D01*
X129941401Y-82882297D01*
X129944588Y-83058865D01*
X129947302Y-83257419D01*
X129949545Y-83474544D01*
X129951316Y-83706821D01*
X129952616Y-83950833D01*
X129953448Y-84203163D01*
X129953811Y-84460393D01*
X129953708Y-84719106D01*
X129953138Y-84975884D01*
X129952102Y-85227311D01*
X129950603Y-85469968D01*
X129948639Y-85700439D01*
X129946214Y-85915306D01*
X129943327Y-86111152D01*
X129939979Y-86284558D01*
X129936172Y-86432109D01*
X129931907Y-86550387D01*
X129927183Y-86635973D01*
X129922714Y-86681108D01*
X129877684Y-86896313D01*
X129812024Y-87086415D01*
X129727226Y-87249136D01*
X129624780Y-87382203D01*
X129506176Y-87483339D01*
X129372905Y-87550268D01*
X129348176Y-87558296D01*
X129315938Y-87566470D01*
X129247493Y-87582621D01*
X129144798Y-87606312D01*
X129009806Y-87637106D01*
X128844470Y-87674565D01*
X128650747Y-87718251D01*
X128430590Y-87767727D01*
X128185954Y-87822556D01*
X127918792Y-87882300D01*
X127631059Y-87946520D01*
X127324710Y-88014781D01*
X127001700Y-88086643D01*
X126663981Y-88161670D01*
X126313509Y-88239423D01*
X125952238Y-88319466D01*
X125633231Y-88390059D01*
X125188749Y-88488386D01*
X124780816Y-88578640D01*
X124407811Y-88661119D01*
X124068115Y-88736125D01*
X123760106Y-88803957D01*
X123482164Y-88864915D01*
X123232669Y-88919299D01*
X123010001Y-88967409D01*
X122812539Y-89009545D01*
X122638663Y-89046007D01*
X122486752Y-89077094D01*
X122355186Y-89103107D01*
X122242344Y-89124345D01*
X122146607Y-89141109D01*
X122066353Y-89153699D01*
X121999963Y-89162414D01*
X121945816Y-89167554D01*
X121902291Y-89169419D01*
X121902291Y-90281577D01*
X122068188Y-90243642D01*
X122512771Y-90141965D01*
X122963921Y-90038771D01*
X123420063Y-89934419D01*
X123879620Y-89829271D01*
X124341016Y-89723687D01*
X124802675Y-89618028D01*
X125263022Y-89512655D01*
X125720479Y-89407928D01*
X126173471Y-89304208D01*
X126620422Y-89201856D01*
X127059755Y-89101232D01*
X127489895Y-89002697D01*
X127909266Y-88906612D01*
X128316291Y-88813338D01*
X128709395Y-88723234D01*
X129087001Y-88636663D01*
X129447533Y-88553984D01*
X129789415Y-88475558D01*
X130111072Y-88401747D01*
X130410926Y-88332910D01*
X130687402Y-88269408D01*
X130938925Y-88211603D01*
X131163917Y-88159854D01*
X131360803Y-88114522D01*
X131528006Y-88075969D01*
X131663951Y-88044554D01*
X131767062Y-88020639D01*
X131835762Y-88004584D01*
X131868476Y-87996750D01*
X131870884Y-87996107D01*
X131872927Y-87994289D01*
X131874887Y-87989598D01*
X131876766Y-87981244D01*
X131878565Y-87968438D01*
X131880287Y-87950388D01*
X131881932Y-87926304D01*
X131883504Y-87895397D01*
X131885003Y-87856875D01*
X131886431Y-87809948D01*
X131887790Y-87753827D01*
X131889081Y-87687721D01*
X131890307Y-87610839D01*
X131891469Y-87522392D01*
X131892568Y-87421588D01*
X131893607Y-87307639D01*
X131894587Y-87179753D01*
X131895510Y-87037139D01*
X131896377Y-86879009D01*
X131897191Y-86704572D01*
X131897952Y-86513036D01*
X131898663Y-86303613D01*
X131899326Y-86075511D01*
X131899941Y-85827941D01*
X131900512Y-85560112D01*
X131901039Y-85271234D01*
X131901524Y-84960516D01*
X131901969Y-84627169D01*
X131902375Y-84270401D01*
X131902745Y-83889424D01*
X131903080Y-83483445D01*
X131903382Y-83051676D01*
X131903652Y-82593326D01*
X131903892Y-82107604D01*
X131904104Y-81593720D01*
X131904290Y-81050884D01*
X131904451Y-80478306D01*
X131904588Y-79875195D01*
X131904705Y-79240762D01*
X131904802Y-78574215D01*
X131904881Y-77874765D01*
X131904944Y-77141620D01*
X131904992Y-76373992D01*
X131905028Y-75571090D01*
X131905052Y-74732122D01*
X131905068Y-73856300D01*
X131905075Y-72942833D01*
X131905077Y-72173248D01*
X131905077Y-56360975D01*
X132014648Y-56060218D01*
X132138628Y-55694266D01*
X132251302Y-55310528D01*
X132349755Y-54920719D01*
X132431072Y-54536553D01*
X132492337Y-54169747D01*
X132501159Y-54105338D01*
X132512432Y-54008648D01*
X132520475Y-53910144D01*
X132525537Y-53802260D01*
X132527868Y-53677430D01*
X132527717Y-53528087D01*
X132527717Y-53528087D01*
G37*
X132527717Y-53528087D02*
X132525604Y-53362876D01*
X132522802Y-53207758D01*
X132519753Y-53085118D01*
X132515874Y-52988361D01*
X132510583Y-52910888D01*
X132503300Y-52846105D01*
X132493443Y-52787413D01*
X132480429Y-52728216D01*
X132463859Y-52662615D01*
X132378433Y-52400139D01*
X132266751Y-52165750D01*
X132129306Y-51960002D01*
X131966590Y-51783449D01*
X131779097Y-51636647D01*
X131567319Y-51520150D01*
X131387307Y-51451222D01*
X131284149Y-51426846D01*
X131153721Y-51408750D01*
X131007410Y-51397496D01*
X130856603Y-51393646D01*
X130712686Y-51397762D01*
X130587046Y-51410406D01*
X130580670Y-51411395D01*
X130281375Y-51476909D01*
X129972706Y-51579760D01*
X129655451Y-51719553D01*
X129330395Y-51895893D01*
X128998325Y-52108383D01*
X128660026Y-52356629D01*
X128584904Y-52415953D01*
X128485320Y-52499498D01*
X128365233Y-52606572D01*
X128230269Y-52731647D01*
X128086053Y-52869195D01*
X127938211Y-53013690D01*
X127792368Y-53159602D01*
X127654152Y-53301404D01*
X127529186Y-53433569D01*
X127423098Y-53550568D01*
X127382402Y-53597518D01*
X127210361Y-53799729D01*
X127132512Y-53640848D01*
X127020930Y-53454080D01*
X126884322Y-53296612D01*
X126724046Y-53168924D01*
X126541463Y-53071492D01*
X126337932Y-53004795D01*
X126114814Y-52969311D01*
X125873468Y-52965518D01*
X125615254Y-52993895D01*
X125412813Y-53036209D01*
X125124162Y-53123423D01*
X124820961Y-53244250D01*
X124505565Y-53397075D01*
X124180332Y-53580280D01*
X123847618Y-53792249D01*
X123509780Y-54031367D01*
X123169174Y-54296016D01*
X122828158Y-54584580D01*
X122489088Y-54895443D01*
X122154321Y-55226989D01*
X122031058Y-55355597D01*
X121567101Y-55864433D01*
X121104732Y-56406429D01*
X120648177Y-56975755D01*
X120201666Y-57566584D01*
X119769425Y-58173086D01*
X119355683Y-58789434D01*
X118964668Y-59409799D01*
X118600607Y-60028353D01*
X118464091Y-60272846D01*
X118396314Y-60398813D01*
X118316893Y-60550805D01*
X118228920Y-60722541D01*
X118135490Y-60907745D01*
X118039697Y-61100137D01*
X117944636Y-61293439D01*
X117853401Y-61481372D01*
X117769086Y-61657659D01*
X117694786Y-61816020D01*
X117633595Y-61950177D01*
X117602267Y-62021538D01*
X117341857Y-62658135D01*
X117113073Y-63280578D01*
X116916232Y-63887767D01*
X116751652Y-64478603D01*
X116619650Y-65051986D01*
X116520543Y-65606815D01*
X116478285Y-65919461D01*
X116468781Y-66024712D01*
X116461228Y-66159413D01*
X116455591Y-66317478D01*
X116451839Y-66492818D01*
X116449937Y-66679345D01*
X116449854Y-66870971D01*
X116451557Y-67061608D01*
X116455011Y-67245169D01*
X116460186Y-67415565D01*
X116467046Y-67566708D01*
X116475560Y-67692511D01*
X116485695Y-67786885D01*
X116488489Y-67804923D01*
X116564780Y-68172410D01*
X116664678Y-68513454D01*
X116787397Y-68825535D01*
X116842248Y-68940795D01*
X116938615Y-69132828D01*
X116938615Y-80270106D01*
X116938626Y-81073706D01*
X116938662Y-81839106D01*
X116938723Y-82567181D01*
X116938812Y-83258810D01*
X116938931Y-83914867D01*
X116939083Y-84536231D01*
X116939269Y-85123777D01*
X116939491Y-85678381D01*
X116939752Y-86200921D01*
X116940053Y-86692273D01*
X116940397Y-87153314D01*
X116940786Y-87584919D01*
X116941222Y-87987967D01*
X116941706Y-88363332D01*
X116942242Y-88711892D01*
X116942830Y-89034524D01*
X116943474Y-89332103D01*
X116944175Y-89605506D01*
X116944936Y-89855610D01*
X116945757Y-90083292D01*
X116946642Y-90289428D01*
X116947593Y-90474894D01*
X116948612Y-90640567D01*
X116949700Y-90787324D01*
X116950860Y-90916041D01*
X116952094Y-91027594D01*
X116953404Y-91122861D01*
X116954792Y-91202718D01*
X116956260Y-91268040D01*
X116957811Y-91319706D01*
X116959445Y-91358591D01*
X116961167Y-91385572D01*
X116962976Y-91401526D01*
X116964876Y-91407328D01*
X116965092Y-91407384D01*
X116985441Y-91403079D01*
X117042302Y-91390402D01*
X117134100Y-91369715D01*
X117259259Y-91341378D01*
X117416202Y-91305752D01*
X117603354Y-91263198D01*
X117819138Y-91214077D01*
X118061979Y-91158749D01*
X118330300Y-91097574D01*
X118622525Y-91030914D01*
X118832308Y-90983039D01*
X118832308Y-88497284D01*
X118837962Y-88327547D01*
X118843615Y-88157810D01*
X119273461Y-88061426D01*
X119350367Y-88043522D01*
X119350367Y-87401891D01*
X119202485Y-87388972D01*
X119080700Y-87349277D01*
X118981002Y-87280940D01*
X118909007Y-87196584D01*
X118865654Y-87123638D01*
X118838036Y-87049373D01*
X118823658Y-86962739D01*
X118820027Y-86852686D01*
X118820847Y-86806077D01*
X118825367Y-86711452D01*
X118835296Y-86639978D01*
X118854065Y-86575778D01*
X118885109Y-86502977D01*
X118887501Y-86497852D01*
X118974969Y-86354790D01*
X119092257Y-86229672D01*
X119231257Y-86131042D01*
X119240583Y-86125896D01*
X119263386Y-86113523D01*
X119263386Y-85796354D01*
X119126886Y-85766179D01*
X119012556Y-85704118D01*
X118920185Y-85610121D01*
X118909007Y-85594430D01*
X118865654Y-85521485D01*
X118838036Y-85447219D01*
X118823658Y-85360585D01*
X118820027Y-85250532D01*
X118820847Y-85203923D01*
X118825367Y-85109298D01*
X118835296Y-85037824D01*
X118854065Y-84973624D01*
X118885109Y-84900824D01*
X118887501Y-84895699D01*
X118966177Y-84764925D01*
X119070413Y-84646575D01*
X119189863Y-84551515D01*
X119246164Y-84519058D01*
X119341846Y-84470572D01*
X119341846Y-84819639D01*
X119262953Y-84882124D01*
X119175924Y-84972053D01*
X119124585Y-85077026D01*
X119107391Y-85200226D01*
X119107384Y-85202836D01*
X119111017Y-85273159D01*
X119125518Y-85321675D01*
X119156292Y-85365271D01*
X119161115Y-85370729D01*
X119231559Y-85423383D01*
X119326126Y-85457037D01*
X119369374Y-85461988D01*
X119369374Y-83298656D01*
X119225570Y-83281181D01*
X119098153Y-83229531D01*
X118990503Y-83146379D01*
X118905997Y-83034398D01*
X118848014Y-82896260D01*
X118844395Y-82883317D01*
X118825672Y-82778574D01*
X118817208Y-82652112D01*
X118819008Y-82519919D01*
X118831076Y-82397984D01*
X118844225Y-82332581D01*
X118905618Y-82163344D01*
X118994881Y-82012972D01*
X119107890Y-81886687D01*
X119240522Y-81789710D01*
X119295007Y-81761721D01*
X119359946Y-81735357D01*
X119359946Y-81425813D01*
X119208465Y-81411498D01*
X119077347Y-81366527D01*
X118969375Y-81292648D01*
X118887333Y-81191608D01*
X118845904Y-81103086D01*
X118822702Y-80998839D01*
X118816263Y-80875322D01*
X118826319Y-80748436D01*
X118849906Y-80645795D01*
X118849906Y-79821077D01*
X118842649Y-79803038D01*
X118837098Y-79754900D01*
X118834122Y-79685632D01*
X118833846Y-79655000D01*
X118835044Y-79579947D01*
X118838239Y-79522547D01*
X118842837Y-79491772D01*
X118844870Y-79488923D01*
X118866009Y-79484791D01*
X118920450Y-79473103D01*
X119003381Y-79454922D01*
X119093909Y-79434873D01*
X119093909Y-78888695D01*
X119031969Y-78888524D01*
X118984671Y-78879786D01*
X118947381Y-78862743D01*
X118915466Y-78837656D01*
X118913848Y-78836118D01*
X118863449Y-78768026D01*
X118836887Y-78699349D01*
X118829862Y-78643792D01*
X118827654Y-78572585D01*
X118829745Y-78497730D01*
X118835615Y-78431227D01*
X118844746Y-78385077D01*
X118851016Y-78372671D01*
X118875151Y-78364938D01*
X118927442Y-78356050D01*
X118997079Y-78347806D01*
X119004807Y-78347065D01*
X119146461Y-78333788D01*
X119146461Y-78554182D01*
X119209961Y-78541616D01*
X119248825Y-78533532D01*
X119318598Y-78518628D01*
X119412023Y-78498472D01*
X119521844Y-78474628D01*
X119639807Y-78448881D01*
X120006154Y-78368710D01*
X120006154Y-78142606D01*
X120079423Y-78121978D01*
X120151447Y-78104135D01*
X120224054Y-78089572D01*
X120225961Y-78089254D01*
X120299231Y-78077159D01*
X120299231Y-77988298D01*
X120186884Y-77976340D01*
X120136479Y-77971566D01*
X120053833Y-77964432D01*
X119945676Y-77955488D01*
X119818736Y-77945283D01*
X119679740Y-77934368D01*
X119566538Y-77925657D01*
X119422794Y-77914576D01*
X119285821Y-77903787D01*
X119162349Y-77893838D01*
X119059106Y-77885278D01*
X118982820Y-77878652D01*
X118946192Y-77875163D01*
X118833846Y-77863394D01*
X118836442Y-77544846D01*
X119254107Y-77340908D01*
X119370564Y-77283216D01*
X119473703Y-77230530D01*
X119558822Y-77185383D01*
X119621222Y-77150309D01*
X119656203Y-77127840D01*
X119661963Y-77121100D01*
X119639284Y-77113993D01*
X119587045Y-77108532D01*
X119514753Y-77105546D01*
X119480530Y-77105231D01*
X119387737Y-77104069D01*
X119272637Y-77100933D01*
X119151917Y-77096344D01*
X119070634Y-77092419D01*
X118832364Y-77079607D01*
X118837990Y-76923774D01*
X118843615Y-76767940D01*
X119157744Y-76597274D01*
X119157744Y-76072483D01*
X119049694Y-76059874D01*
X118965068Y-76019313D01*
X118897311Y-75946701D01*
X118863125Y-75888219D01*
X118838010Y-75834561D01*
X118823296Y-75787301D01*
X118816912Y-75733554D01*
X118816786Y-75660433D01*
X118818505Y-75610538D01*
X118824626Y-75513744D01*
X118836396Y-75439570D01*
X118857509Y-75371613D01*
X118888297Y-75300614D01*
X118918265Y-75235984D01*
X118940453Y-75186939D01*
X118950789Y-75162509D01*
X118951077Y-75161402D01*
X118934306Y-75154463D01*
X118893824Y-75144820D01*
X118892461Y-75144546D01*
X118833846Y-75132823D01*
X118833846Y-74781121D01*
X118837970Y-74782688D01*
X118837970Y-74486581D01*
X118836043Y-74468772D01*
X118835708Y-74420763D01*
X118836964Y-74351400D01*
X118837970Y-74317933D01*
X118843615Y-74148789D01*
X119253923Y-74056127D01*
X119342626Y-74035938D01*
X119342626Y-73392732D01*
X119191658Y-73377364D01*
X119065038Y-73331580D01*
X118962388Y-73255226D01*
X118935281Y-73225209D01*
X118880164Y-73148111D01*
X118844503Y-73069430D01*
X118825413Y-72978580D01*
X118820010Y-72864979D01*
X118821177Y-72806487D01*
X118826137Y-72710443D01*
X118835464Y-72638918D01*
X118852296Y-72577372D01*
X118879772Y-72511267D01*
X118889255Y-72491102D01*
X118959692Y-72376658D01*
X119056942Y-72264447D01*
X119169865Y-72166004D01*
X119260171Y-72107019D01*
X119341846Y-72061807D01*
X119341790Y-72243788D01*
X119341331Y-72329081D01*
X119338406Y-72384290D01*
X119330592Y-72418407D01*
X119315470Y-72440427D01*
X119290618Y-72459341D01*
X119282285Y-72464846D01*
X119235803Y-72504867D01*
X119185884Y-72561677D01*
X119165110Y-72590311D01*
X119126711Y-72658802D01*
X119109996Y-72725529D01*
X119107384Y-72781781D01*
X119120769Y-72892831D01*
X119161110Y-72975612D01*
X119228687Y-73030410D01*
X119323780Y-73057513D01*
X119380295Y-73060769D01*
X119459077Y-73060769D01*
X119459077Y-72049194D01*
X119509021Y-72039771D01*
X119509021Y-69953269D01*
X119318448Y-69950285D01*
X119148669Y-69938932D01*
X119054666Y-69926946D01*
X118749069Y-69860121D01*
X118465637Y-69761299D01*
X118204772Y-69630938D01*
X117966876Y-69469498D01*
X117752354Y-69277438D01*
X117561606Y-69055216D01*
X117395036Y-68803293D01*
X117253047Y-68522127D01*
X117136042Y-68212177D01*
X117044422Y-67873903D01*
X116987719Y-67570461D01*
X116978720Y-67487246D01*
X116971469Y-67371779D01*
X116965970Y-67230847D01*
X116962230Y-67071235D01*
X116960256Y-66899730D01*
X116960054Y-66723118D01*
X116961630Y-66548185D01*
X116964991Y-66381718D01*
X116970143Y-66230504D01*
X116977093Y-66101327D01*
X116985846Y-66000975D01*
X116986239Y-65997615D01*
X117065727Y-65458878D01*
X117178465Y-64902531D01*
X117323783Y-64330369D01*
X117501013Y-63744185D01*
X117709484Y-63145774D01*
X117948527Y-62536929D01*
X118217473Y-61919443D01*
X118515652Y-61295112D01*
X118842395Y-60665729D01*
X119197033Y-60033087D01*
X119238815Y-59961500D01*
X119658754Y-59274175D01*
X120112076Y-58587239D01*
X120593643Y-57907662D01*
X121098320Y-57242413D01*
X121620970Y-56598462D01*
X122156456Y-55982778D01*
X122234893Y-55896231D01*
X122549165Y-55564062D01*
X122870990Y-55248453D01*
X123197471Y-54951594D01*
X123525710Y-54675676D01*
X123852807Y-54422892D01*
X124175866Y-54195432D01*
X124491987Y-53995488D01*
X124798274Y-53825251D01*
X125091827Y-53686914D01*
X125229865Y-53631541D01*
X125421820Y-53568241D01*
X125616294Y-53520639D01*
X125804666Y-53490100D01*
X125978316Y-53477987D01*
X126128621Y-53485662D01*
X126141231Y-53487448D01*
X126301368Y-53530712D01*
X126445965Y-53607890D01*
X126570090Y-53715287D01*
X126668809Y-53849207D01*
X126697713Y-53904328D01*
X126730541Y-53981765D01*
X126757606Y-54065623D01*
X126780109Y-54162206D01*
X126799250Y-54277819D01*
X126816229Y-54418764D01*
X126832244Y-54591346D01*
X126835115Y-54626231D01*
X126844795Y-54744946D01*
X126853652Y-54852156D01*
X126861111Y-54941023D01*
X126866598Y-55004707D01*
X126869539Y-55036367D01*
X126869558Y-55036538D01*
X126880104Y-55037828D01*
X126909029Y-55011584D01*
X126957195Y-54956797D01*
X127025467Y-54872457D01*
X127114706Y-54757555D01*
X127170097Y-54684846D01*
X127338418Y-54464931D01*
X127490399Y-54271434D01*
X127631299Y-54098210D01*
X127766375Y-53939110D01*
X127900887Y-53787988D01*
X128040091Y-53638698D01*
X128189247Y-53485092D01*
X128241057Y-53432899D01*
X128490852Y-53189228D01*
X128725575Y-52974879D01*
X128950331Y-52785710D01*
X129170223Y-52617578D01*
X129390357Y-52466339D01*
X129567450Y-52356282D01*
X129846556Y-52202987D01*
X130114091Y-52081348D01*
X130368883Y-51991306D01*
X130609762Y-51932802D01*
X130835556Y-51905777D01*
X131045093Y-51910173D01*
X131237201Y-51945932D01*
X131410709Y-52012993D01*
X131564444Y-52111299D01*
X131697237Y-52240791D01*
X131807914Y-52401411D01*
X131843802Y-52470332D01*
X131894985Y-52582621D01*
X131934709Y-52685833D01*
X131964553Y-52787975D01*
X131986094Y-52897053D01*
X132000911Y-53021072D01*
X132010582Y-53168040D01*
X132016685Y-53345961D01*
X132016726Y-53347598D01*
X132018662Y-53594357D01*
X132010838Y-53815805D01*
X131992247Y-54024714D01*
X131961884Y-54233855D01*
X131936110Y-54372231D01*
X131908749Y-54509000D01*
X131904567Y-54352692D01*
X131900386Y-54196384D01*
X131866537Y-54430846D01*
X131780728Y-54903709D01*
X131659009Y-55386078D01*
X131502590Y-55875249D01*
X131312679Y-56368514D01*
X131090487Y-56863168D01*
X130837223Y-57356505D01*
X130554096Y-57845819D01*
X130242316Y-58328404D01*
X129927637Y-58768888D01*
X129595620Y-59192034D01*
X129256713Y-59584230D01*
X128912547Y-59943865D01*
X128564754Y-60269325D01*
X128214963Y-60559000D01*
X127864806Y-60811278D01*
X127854992Y-60817801D01*
X127777398Y-60867821D01*
X127685552Y-60924748D01*
X127585004Y-60985396D01*
X127481302Y-61046578D01*
X127379995Y-61105110D01*
X127286632Y-61157805D01*
X127206761Y-61201477D01*
X127145931Y-61232941D01*
X127109691Y-61249011D01*
X127102148Y-61250046D01*
X127110176Y-61232459D01*
X127136588Y-61188077D01*
X127177889Y-61122485D01*
X127230590Y-61041268D01*
X127269226Y-60982859D01*
X127525505Y-60587065D01*
X127768783Y-60189137D01*
X127997504Y-59792298D01*
X128210112Y-59399774D01*
X128405050Y-59014786D01*
X128580762Y-58640559D01*
X128735690Y-58280315D01*
X128868278Y-57937280D01*
X128976970Y-57614675D01*
X129060209Y-57315725D01*
X129079209Y-57234615D01*
X129124068Y-56998958D01*
X129149381Y-56783370D01*
X129155505Y-56589879D01*
X129142797Y-56420513D01*
X129111615Y-56277300D01*
X129062314Y-56162269D01*
X128995253Y-56077448D01*
X128910789Y-56024864D01*
X128863842Y-56011609D01*
X128716834Y-56003001D01*
X128551587Y-56028882D01*
X128368167Y-56089220D01*
X128166643Y-56183981D01*
X127947083Y-56313131D01*
X127709555Y-56476639D01*
X127454128Y-56674469D01*
X127385549Y-56730895D01*
X127116500Y-56966624D01*
X126838884Y-57231970D01*
X126558600Y-57520247D01*
X126281542Y-57824770D01*
X126013609Y-58138853D01*
X125760695Y-58455810D01*
X125528698Y-58768955D01*
X125330050Y-59061461D01*
X125088110Y-59424102D01*
X124832028Y-59785326D01*
X124567574Y-60137599D01*
X124300517Y-60473387D01*
X124036629Y-60785157D01*
X123856022Y-60986000D01*
X123816899Y-61028102D01*
X123790148Y-61054731D01*
X123776279Y-61062788D01*
X123775805Y-61049176D01*
X123789236Y-61010798D01*
X123817083Y-60944554D01*
X123859856Y-60847348D01*
X123890144Y-60779080D01*
X124004365Y-60514024D01*
X124120814Y-60229654D01*
X124236159Y-59934888D01*
X124347063Y-59638647D01*
X124450192Y-59349847D01*
X124542212Y-59077408D01*
X124619787Y-58830248D01*
X124623668Y-58817231D01*
X124710306Y-58513595D01*
X124780499Y-58239775D01*
X124835202Y-57990593D01*
X124875367Y-57760873D01*
X124901948Y-57545439D01*
X124915896Y-57339114D01*
X124918610Y-57215077D01*
X124916622Y-57055655D01*
X124907873Y-56928244D01*
X124890766Y-56826121D01*
X124863703Y-56742564D01*
X124825087Y-56670848D01*
X124773568Y-56604529D01*
X124733022Y-56561256D01*
X124698716Y-56536158D01*
X124657073Y-56523395D01*
X124594513Y-56517127D01*
X124566448Y-56515460D01*
X124481758Y-56513871D01*
X124415369Y-56522779D01*
X124347139Y-56545664D01*
X124316911Y-56558584D01*
X124163105Y-56641626D01*
X123996599Y-56759657D01*
X123818624Y-56911158D01*
X123630408Y-57094608D01*
X123433185Y-57308487D01*
X123228184Y-57551276D01*
X123016636Y-57821454D01*
X122799772Y-58117503D01*
X122578823Y-58437900D01*
X122355019Y-58781128D01*
X122129591Y-59145666D01*
X121903770Y-59529993D01*
X121886784Y-59559692D01*
X121609846Y-60062332D01*
X121352872Y-60564358D01*
X121116319Y-61063950D01*
X120900643Y-61559288D01*
X120706301Y-62048551D01*
X120533751Y-62529918D01*
X120383448Y-63001570D01*
X120255851Y-63461687D01*
X120151415Y-63908447D01*
X120070598Y-64340030D01*
X120013856Y-64754616D01*
X119981647Y-65150385D01*
X119974427Y-65525516D01*
X119992653Y-65878188D01*
X120036783Y-66206582D01*
X120107272Y-66508877D01*
X120126680Y-66572699D01*
X120218163Y-66813931D01*
X120331803Y-67035487D01*
X120464374Y-67232221D01*
X120612650Y-67398990D01*
X120685993Y-67464847D01*
X120799283Y-67546852D01*
X120936271Y-67627435D01*
X121083841Y-67700109D01*
X121228876Y-67758388D01*
X121352928Y-67794635D01*
X121617580Y-67833545D01*
X121898576Y-67838246D01*
X122194759Y-67809467D01*
X122504971Y-67747937D01*
X122828053Y-67654384D01*
X123162849Y-67529538D01*
X123508199Y-67374128D01*
X123862948Y-67188882D01*
X124225935Y-66974531D01*
X124596005Y-66731802D01*
X124971999Y-66461425D01*
X125352758Y-66164129D01*
X125737127Y-65840643D01*
X126123945Y-65491695D01*
X126512057Y-65118016D01*
X126900303Y-64720333D01*
X127287527Y-64299376D01*
X127672570Y-63855874D01*
X127744460Y-63770231D01*
X128266942Y-63119873D01*
X128766296Y-62448679D01*
X129240360Y-61760220D01*
X129686974Y-61058070D01*
X130103979Y-60345801D01*
X130489214Y-59626985D01*
X130840518Y-58905195D01*
X131155731Y-58184003D01*
X131223872Y-58016154D01*
X131268948Y-57904441D01*
X131308793Y-57807552D01*
X131341309Y-57730432D01*
X131364400Y-57678028D01*
X131375969Y-57655285D01*
X131376908Y-57655256D01*
X131370954Y-57681535D01*
X131353841Y-57738864D01*
X131327523Y-57821478D01*
X131293956Y-57923617D01*
X131255094Y-58039518D01*
X131212891Y-58163419D01*
X131169301Y-58289557D01*
X131126281Y-58412171D01*
X131085783Y-58525498D01*
X131049764Y-58623775D01*
X131035777Y-58660923D01*
X130846361Y-59134067D01*
X130629471Y-59630207D01*
X130384425Y-60150893D01*
X130353520Y-60214231D01*
X129958351Y-60981282D01*
X129529128Y-61739218D01*
X129068149Y-62485014D01*
X128577716Y-63215643D01*
X128060128Y-63928081D01*
X127517686Y-64619301D01*
X126952688Y-65286279D01*
X126367437Y-65925989D01*
X125764230Y-66535405D01*
X125145370Y-67111502D01*
X125037307Y-67207194D01*
X124516361Y-67648475D01*
X124000455Y-68052013D01*
X123488393Y-68418639D01*
X122978981Y-68749187D01*
X122471022Y-69044488D01*
X122171329Y-69202620D01*
X121836685Y-69366198D01*
X121523122Y-69505666D01*
X121223258Y-69623686D01*
X120929710Y-69722919D01*
X120635093Y-69806028D01*
X120332026Y-69875674D01*
X120269923Y-69888188D01*
X120100840Y-69915343D01*
X119910684Y-69935464D01*
X119709922Y-69948217D01*
X119509021Y-69953269D01*
X119509021Y-72039771D01*
X119587664Y-72024931D01*
X119762496Y-72006057D01*
X119916659Y-72018163D01*
X120048372Y-72059865D01*
X120155853Y-72129775D01*
X120237323Y-72226510D01*
X120291001Y-72348681D01*
X120315107Y-72494905D01*
X120314798Y-72590868D01*
X120286555Y-72757933D01*
X120224146Y-72911627D01*
X120131045Y-73049086D01*
X120010725Y-73167447D01*
X119866657Y-73263843D01*
X119702316Y-73335412D01*
X119521175Y-73379287D01*
X119342626Y-73392732D01*
X119342626Y-74035938D01*
X119400799Y-74022697D01*
X119515674Y-73995729D01*
X119604746Y-73973456D01*
X119674213Y-73954112D01*
X119730275Y-73935928D01*
X119779131Y-73917139D01*
X119826978Y-73895976D01*
X119844360Y-73887812D01*
X119907779Y-73841073D01*
X119957819Y-73774007D01*
X119984579Y-73701226D01*
X119986615Y-73677839D01*
X119977405Y-73622226D01*
X119956836Y-73567858D01*
X119927057Y-73510271D01*
X120030105Y-73444759D01*
X120110090Y-73394177D01*
X120164033Y-73362952D01*
X120199134Y-73349901D01*
X120222596Y-73353839D01*
X120241620Y-73373584D01*
X120262546Y-73406563D01*
X120300927Y-73496681D01*
X120317062Y-73598168D01*
X120310200Y-73696804D01*
X120281995Y-73774408D01*
X120252001Y-73827968D01*
X120242811Y-73854556D01*
X120253634Y-73859773D01*
X120270708Y-73854479D01*
X120285491Y-73853732D01*
X120293857Y-73870108D01*
X120296928Y-73910388D01*
X120295829Y-73981357D01*
X120295131Y-74001967D01*
X120289461Y-74161003D01*
X119566538Y-74323544D01*
X119404483Y-74359961D01*
X119254803Y-74393559D01*
X119121685Y-74423401D01*
X119009318Y-74448550D01*
X118921887Y-74468069D01*
X118863581Y-74481021D01*
X118838586Y-74486469D01*
X118837970Y-74486581D01*
X118837970Y-74782688D01*
X118883964Y-74800176D01*
X118923850Y-74811511D01*
X118972205Y-74816849D01*
X119033813Y-74815671D01*
X119113458Y-74807457D01*
X119215924Y-74791689D01*
X119345995Y-74767847D01*
X119508456Y-74735413D01*
X119539311Y-74729075D01*
X119682328Y-74699899D01*
X119792779Y-74678312D01*
X119876283Y-74663595D01*
X119938458Y-74655029D01*
X119984922Y-74651895D01*
X120021294Y-74653474D01*
X120053191Y-74659046D01*
X120064517Y-74661854D01*
X120156067Y-74698697D01*
X120224747Y-74757449D01*
X120272797Y-74841861D01*
X120302460Y-74955683D01*
X120315016Y-75080763D01*
X120310248Y-75278095D01*
X120275087Y-75452364D01*
X120209919Y-75602785D01*
X120115130Y-75728573D01*
X119991107Y-75828940D01*
X119930359Y-75863343D01*
X119874819Y-75890627D01*
X119834571Y-75908803D01*
X119821188Y-75913384D01*
X119816619Y-75895323D01*
X119813249Y-75847031D01*
X119811579Y-75777351D01*
X119811511Y-75742423D01*
X119812252Y-75571461D01*
X119890973Y-75516985D01*
X119961417Y-75453156D01*
X120004353Y-75374787D01*
X120022617Y-75274785D01*
X120022278Y-75188762D01*
X120012977Y-75098562D01*
X119994158Y-75040692D01*
X119961046Y-75008698D01*
X119908868Y-74996122D01*
X119879081Y-74995077D01*
X119826840Y-74997195D01*
X119799491Y-75010576D01*
X119783900Y-75045760D01*
X119775605Y-75078115D01*
X119764408Y-75131607D01*
X119749829Y-75211956D01*
X119733938Y-75307325D01*
X119721767Y-75385846D01*
X119704583Y-75486903D01*
X119684387Y-75584338D01*
X119664011Y-75665410D01*
X119650158Y-75708210D01*
X119581697Y-75837681D01*
X119489201Y-75942473D01*
X119377793Y-76018797D01*
X119252600Y-76062861D01*
X119157744Y-76072483D01*
X119157744Y-76597274D01*
X119556769Y-76380482D01*
X119710104Y-76297343D01*
X119852829Y-76220281D01*
X119981286Y-76151247D01*
X120091815Y-76092194D01*
X120180756Y-76045073D01*
X120244449Y-76011836D01*
X120279237Y-75994435D01*
X120284577Y-75992281D01*
X120291265Y-76009947D01*
X120296352Y-76057663D01*
X120299020Y-76126412D01*
X120299231Y-76153828D01*
X120299231Y-76316118D01*
X119410231Y-76782846D01*
X119556769Y-76794946D01*
X119635779Y-76799975D01*
X119739812Y-76804503D01*
X119854812Y-76808007D01*
X119957307Y-76809867D01*
X120080371Y-76811227D01*
X120169751Y-76814031D01*
X120230819Y-76821086D01*
X120268944Y-76835197D01*
X120289497Y-76859171D01*
X120297847Y-76895814D01*
X120299365Y-76947932D01*
X120299231Y-76988540D01*
X120299231Y-77140831D01*
X120069654Y-77252380D01*
X119953774Y-77308747D01*
X119822522Y-77372691D01*
X119694514Y-77435137D01*
X119615384Y-77473795D01*
X119390692Y-77583661D01*
X119556769Y-77596736D01*
X119639830Y-77602607D01*
X119748765Y-77609355D01*
X119870405Y-77616209D01*
X119991581Y-77622398D01*
X120011038Y-77623322D01*
X120299231Y-77636832D01*
X120299231Y-77988298D01*
X120299231Y-78077159D01*
X120299231Y-78187118D01*
X120301952Y-78246746D01*
X120308985Y-78286679D01*
X120316143Y-78297077D01*
X120340932Y-78292993D01*
X120395517Y-78281900D01*
X120471610Y-78265536D01*
X120553047Y-78247417D01*
X120641328Y-78228242D01*
X120715532Y-78213539D01*
X120767454Y-78204839D01*
X120788494Y-78203455D01*
X120786202Y-78221752D01*
X120767933Y-78266782D01*
X120736910Y-78331242D01*
X120706517Y-78389227D01*
X120609086Y-78569301D01*
X120454158Y-78602593D01*
X120299231Y-78635886D01*
X120299231Y-78719728D01*
X120296871Y-78772950D01*
X120283377Y-78800645D01*
X120249124Y-78816336D01*
X120225961Y-78822669D01*
X120153604Y-78839816D01*
X120080816Y-78854654D01*
X120079423Y-78854904D01*
X120006154Y-78868041D01*
X120006154Y-78787713D01*
X120003945Y-78737953D01*
X119998410Y-78709768D01*
X119995945Y-78707384D01*
X119974687Y-78711486D01*
X119921038Y-78722953D01*
X119840719Y-78740531D01*
X119739453Y-78762964D01*
X119622960Y-78788996D01*
X119580752Y-78798478D01*
X119413912Y-78835190D01*
X119280247Y-78862289D01*
X119175124Y-78880037D01*
X119093909Y-78888695D01*
X119093909Y-79434873D01*
X119109989Y-79431311D01*
X119235461Y-79403333D01*
X119374986Y-79372049D01*
X119420000Y-79361923D01*
X119562880Y-79329836D01*
X119693189Y-79300728D01*
X119806114Y-79275660D01*
X119896843Y-79255695D01*
X119960563Y-79241896D01*
X119992461Y-79235326D01*
X119995130Y-79234923D01*
X120000637Y-79217060D01*
X120004589Y-79170162D01*
X120006152Y-79104264D01*
X120006154Y-79102229D01*
X120006154Y-78969534D01*
X120152692Y-78938914D01*
X120299231Y-78908295D01*
X120299231Y-79172153D01*
X120376245Y-79152604D01*
X120443530Y-79128836D01*
X120486216Y-79093313D01*
X120509720Y-79037731D01*
X120519460Y-78953787D01*
X120520262Y-78931842D01*
X120523923Y-78800620D01*
X120660692Y-78746227D01*
X120726681Y-78720788D01*
X120776650Y-78703042D01*
X120801364Y-78696237D01*
X120802422Y-78696429D01*
X120807043Y-78716561D01*
X120814825Y-78765783D01*
X120824264Y-78834389D01*
X120826467Y-78851544D01*
X120834824Y-79000192D01*
X120817743Y-79124424D01*
X120773980Y-79230516D01*
X120741645Y-79278797D01*
X120678918Y-79348420D01*
X120606343Y-79400620D01*
X120513020Y-79442039D01*
X120431984Y-79467480D01*
X120309000Y-79502070D01*
X120303111Y-79602476D01*
X120298057Y-79661850D01*
X120286723Y-79694062D01*
X120261320Y-79710998D01*
X120224957Y-79721709D01*
X120152607Y-79738819D01*
X120079743Y-79753616D01*
X120079423Y-79753674D01*
X120006154Y-79766810D01*
X120006154Y-79666571D01*
X120004837Y-79608120D01*
X119998028Y-79579971D01*
X119981441Y-79573366D01*
X119962192Y-79576759D01*
X119906682Y-79589603D01*
X119825030Y-79608071D01*
X119723051Y-79630887D01*
X119606561Y-79656772D01*
X119481375Y-79684449D01*
X119353310Y-79712641D01*
X119228182Y-79740070D01*
X119111805Y-79765459D01*
X119009996Y-79787531D01*
X118928571Y-79805007D01*
X118873345Y-79816611D01*
X118850134Y-79821065D01*
X118849906Y-79821077D01*
X118849906Y-80645795D01*
X118852598Y-80634080D01*
X118853947Y-80630097D01*
X118930372Y-80464514D01*
X119036318Y-80322864D01*
X119169152Y-80206877D01*
X119326240Y-80118279D01*
X119504947Y-80058801D01*
X119702641Y-80030170D01*
X119771692Y-80027785D01*
X119865307Y-80028431D01*
X119932018Y-80033557D01*
X119983919Y-80045150D01*
X120033103Y-80065198D01*
X120049828Y-80073512D01*
X120130744Y-80121314D01*
X120190024Y-80175259D01*
X120240480Y-80248347D01*
X120263229Y-80290000D01*
X120285132Y-80337755D01*
X120298824Y-80386266D01*
X120306114Y-80446749D01*
X120308805Y-80530423D01*
X120309000Y-80574211D01*
X120308160Y-80666290D01*
X120303766Y-80732499D01*
X120293005Y-80786038D01*
X120273063Y-80840107D01*
X120241128Y-80907907D01*
X120235420Y-80919487D01*
X120140613Y-81068517D01*
X120016588Y-81194992D01*
X119867662Y-81296413D01*
X119698155Y-81370283D01*
X119512385Y-81414106D01*
X119359946Y-81425813D01*
X119359946Y-81735357D01*
X119362616Y-81734272D01*
X119423069Y-81720546D01*
X119494257Y-81717514D01*
X119545314Y-81719351D01*
X119626864Y-81725872D01*
X119683615Y-81738252D01*
X119729808Y-81760669D01*
X119760909Y-81782594D01*
X119823577Y-81839543D01*
X119877160Y-81910380D01*
X119925040Y-82001458D01*
X119970598Y-82119132D01*
X120013784Y-82257787D01*
X120053634Y-82394426D01*
X120085366Y-82498186D01*
X120111009Y-82573922D01*
X120132591Y-82626490D01*
X120152142Y-82660748D01*
X120171690Y-82681550D01*
X120193266Y-82693755D01*
X120196456Y-82695013D01*
X120262019Y-82704706D01*
X120327954Y-82681006D01*
X120384733Y-82637305D01*
X120451792Y-82556597D01*
X120493473Y-82457809D01*
X120512159Y-82334347D01*
X120513725Y-82280424D01*
X120506109Y-82157010D01*
X120483309Y-82060346D01*
X120446568Y-81994437D01*
X120417778Y-81971012D01*
X120376384Y-81959090D01*
X120314277Y-81951816D01*
X120280977Y-81950769D01*
X120182000Y-81950769D01*
X120182000Y-81603514D01*
X120266944Y-81590776D01*
X120400208Y-81588336D01*
X120520927Y-81620382D01*
X120626423Y-81683591D01*
X120714020Y-81774638D01*
X120781038Y-81890199D01*
X120824803Y-82026950D01*
X120842635Y-82181567D01*
X120838128Y-82299946D01*
X120805619Y-82484739D01*
X120747975Y-82647854D01*
X120667457Y-82786525D01*
X120566327Y-82897989D01*
X120446847Y-82979479D01*
X120311278Y-83028231D01*
X120232784Y-83039923D01*
X120135019Y-83044141D01*
X120062588Y-83035951D01*
X120002739Y-83011701D01*
X119942724Y-82967742D01*
X119924392Y-82951619D01*
X119879906Y-82906150D01*
X119841032Y-82852630D01*
X119805026Y-82785098D01*
X119769144Y-82697594D01*
X119730643Y-82584157D01*
X119686781Y-82438827D01*
X119684063Y-82429461D01*
X119653597Y-82330195D01*
X119622817Y-82240067D01*
X119595030Y-82168139D01*
X119573540Y-82123471D01*
X119570953Y-82119524D01*
X119543369Y-82086056D01*
X119513671Y-82071297D01*
X119467055Y-82070140D01*
X119435531Y-82072800D01*
X119359583Y-82087847D01*
X119300776Y-82121562D01*
X119276166Y-82143533D01*
X119215272Y-82224300D01*
X119172259Y-82325782D01*
X119147157Y-82439777D01*
X119139995Y-82558084D01*
X119150803Y-82672504D01*
X119179610Y-82774834D01*
X119226447Y-82856875D01*
X119273434Y-82900163D01*
X119323599Y-82921743D01*
X119392779Y-82938317D01*
X119431569Y-82943307D01*
X119537231Y-82952070D01*
X119537231Y-83113448D01*
X119535782Y-83199187D01*
X119526991Y-83253210D01*
X119504191Y-83282875D01*
X119460715Y-83295538D01*
X119389896Y-83298554D01*
X119369374Y-83298656D01*
X119369374Y-85461988D01*
X119415115Y-85467226D01*
X119459077Y-85467692D01*
X119459077Y-84961009D01*
X119459254Y-84806631D01*
X119459981Y-84686857D01*
X119461556Y-84597215D01*
X119464273Y-84533235D01*
X119468428Y-84490445D01*
X119474318Y-84464372D01*
X119482238Y-84450545D01*
X119492485Y-84444493D01*
X119493269Y-84444253D01*
X119579747Y-84424102D01*
X119678627Y-84409068D01*
X119774632Y-84400835D01*
X119852487Y-84401088D01*
X119868601Y-84402857D01*
X120008746Y-84441318D01*
X120128105Y-84511050D01*
X120222971Y-84609158D01*
X120289174Y-84731529D01*
X120315370Y-84844140D01*
X120318841Y-84974804D01*
X120300646Y-85110567D01*
X120261842Y-85238474D01*
X120244639Y-85276864D01*
X120149388Y-85426826D01*
X120023275Y-85554710D01*
X119868979Y-85658493D01*
X119689177Y-85736150D01*
X119603739Y-85761249D01*
X119422267Y-85794693D01*
X119263386Y-85796354D01*
X119263386Y-86113523D01*
X119341846Y-86070946D01*
X119341846Y-86436190D01*
X119281422Y-86471883D01*
X119235349Y-86509723D01*
X119186189Y-86565778D01*
X119164192Y-86597152D01*
X119120142Y-86693776D01*
X119103809Y-86794430D01*
X119115377Y-86888931D01*
X119155029Y-86967101D01*
X119157486Y-86970083D01*
X119227009Y-87025278D01*
X119319998Y-87060018D01*
X119405346Y-87069737D01*
X119459077Y-87069846D01*
X119459077Y-86057744D01*
X119554689Y-86034806D01*
X119662986Y-86017472D01*
X119782391Y-86012106D01*
X119896353Y-86018688D01*
X119982145Y-86035277D01*
X120077104Y-86080062D01*
X120168554Y-86151705D01*
X120243474Y-86239162D01*
X120265712Y-86275753D01*
X120286568Y-86321037D01*
X120299583Y-86369359D01*
X120306455Y-86431580D01*
X120308883Y-86518564D01*
X120309000Y-86552488D01*
X120307999Y-86645772D01*
X120303343Y-86712736D01*
X120292550Y-86766114D01*
X120273142Y-86818647D01*
X120245923Y-86876409D01*
X120154219Y-87020097D01*
X120032177Y-87146122D01*
X119885912Y-87250895D01*
X119721541Y-87330828D01*
X119545179Y-87382332D01*
X119362942Y-87401818D01*
X119350367Y-87401891D01*
X119350367Y-88043522D01*
X119404798Y-88030850D01*
X119529465Y-87999744D01*
X119640227Y-87970075D01*
X119729846Y-87943809D01*
X119791086Y-87922911D01*
X119804872Y-87917043D01*
X119898635Y-87857234D01*
X119958854Y-87784218D01*
X119983913Y-87701651D01*
X119972197Y-87613194D01*
X119955867Y-87575060D01*
X119936946Y-87534053D01*
X119930932Y-87511598D01*
X119931444Y-87510691D01*
X119950029Y-87499129D01*
X119993861Y-87472721D01*
X120054548Y-87436512D01*
X120074538Y-87424640D01*
X120142658Y-87385122D01*
X120185681Y-87363932D01*
X120211684Y-87358745D01*
X120228742Y-87367235D01*
X120237816Y-87377633D01*
X120288097Y-87467826D01*
X120314547Y-87571063D01*
X120315908Y-87674988D01*
X120290922Y-87767250D01*
X120279619Y-87788357D01*
X120250210Y-87839991D01*
X120242913Y-87864862D01*
X120257132Y-87868008D01*
X120270708Y-87863556D01*
X120285479Y-87862809D01*
X120293845Y-87879168D01*
X120296926Y-87919409D01*
X120295842Y-87990309D01*
X120295131Y-88011400D01*
X120289461Y-88170792D01*
X119613581Y-88320812D01*
X119454508Y-88356163D01*
X119305783Y-88389294D01*
X119172155Y-88419143D01*
X119058373Y-88444644D01*
X118969183Y-88464735D01*
X118909334Y-88478351D01*
X118885004Y-88484058D01*
X118832308Y-88497284D01*
X118832308Y-90983039D01*
X118857508Y-90977288D01*
X118857508Y-89941862D01*
X118845025Y-89931825D01*
X118838255Y-89897831D01*
X118836559Y-89834309D01*
X118837970Y-89771662D01*
X118843615Y-89601324D01*
X119087846Y-89547006D01*
X119202994Y-89521351D01*
X119325523Y-89493977D01*
X119439175Y-89468519D01*
X119512807Y-89451971D01*
X119693538Y-89411254D01*
X119693538Y-88535975D01*
X119747269Y-88523937D01*
X119805033Y-88510351D01*
X119868923Y-88494485D01*
X119869384Y-88494366D01*
X119913363Y-88482666D01*
X119946777Y-88475970D01*
X119971070Y-88478630D01*
X119987688Y-88494997D01*
X119998072Y-88529420D01*
X120003669Y-88586252D01*
X120005920Y-88669841D01*
X120006271Y-88784539D01*
X120006154Y-88906461D01*
X120006886Y-89031330D01*
X120008936Y-89141939D01*
X120012085Y-89232711D01*
X120016113Y-89298069D01*
X120020801Y-89332438D01*
X120023066Y-89336308D01*
X120047901Y-89332225D01*
X120102450Y-89321146D01*
X120178341Y-89304824D01*
X120256365Y-89287461D01*
X120343397Y-89268020D01*
X120415730Y-89252249D01*
X120465279Y-89241884D01*
X120483683Y-89238615D01*
X120486618Y-89219933D01*
X120489255Y-89167307D01*
X120491484Y-89085873D01*
X120493193Y-88980764D01*
X120494273Y-88857113D01*
X120494615Y-88731368D01*
X120494615Y-88224121D01*
X120567884Y-88205925D01*
X120637080Y-88189007D01*
X120712611Y-88170905D01*
X120724440Y-88168110D01*
X120807726Y-88148491D01*
X120802594Y-88833591D01*
X120797461Y-89518692D01*
X119840077Y-89730208D01*
X119651995Y-89771656D01*
X119475162Y-89810422D01*
X119313311Y-89845701D01*
X119170172Y-89876691D01*
X119049477Y-89902587D01*
X118954959Y-89922586D01*
X118890349Y-89935883D01*
X118859378Y-89941675D01*
X118857508Y-89941862D01*
X118857508Y-90977288D01*
X118937078Y-90959129D01*
X119272383Y-90882580D01*
X119626865Y-90801628D01*
X119998946Y-90716633D01*
X120387051Y-90627956D01*
X120789604Y-90535958D01*
X121205028Y-90440999D01*
X121631748Y-90343440D01*
X121902291Y-90281577D01*
X121902291Y-89169419D01*
X121867769Y-89168309D01*
X121840629Y-89164525D01*
X121819250Y-89158365D01*
X121802012Y-89150131D01*
X121787295Y-89140121D01*
X121773478Y-89128636D01*
X121758941Y-89115976D01*
X121750261Y-89108789D01*
X121655329Y-89009322D01*
X121576630Y-88878211D01*
X121516417Y-88720300D01*
X121476940Y-88540436D01*
X121472954Y-88511924D01*
X121469980Y-88469041D01*
X121467263Y-88390425D01*
X121464805Y-88279416D01*
X121462607Y-88139357D01*
X121460668Y-87973591D01*
X121458990Y-87785458D01*
X121457574Y-87578301D01*
X121456419Y-87355463D01*
X121455528Y-87120284D01*
X121454900Y-86876107D01*
X121454536Y-86626275D01*
X121454438Y-86374128D01*
X121454604Y-86123010D01*
X121455038Y-85876262D01*
X121455738Y-85637225D01*
X121456706Y-85409243D01*
X121457942Y-85195657D01*
X121459448Y-84999810D01*
X121461224Y-84825042D01*
X121463270Y-84674697D01*
X121465587Y-84552116D01*
X121468176Y-84460641D01*
X121471038Y-84403614D01*
X121472086Y-84392564D01*
X121476423Y-84368417D01*
X121476423Y-82595351D01*
X121469297Y-82587118D01*
X121463601Y-82560127D01*
X121459205Y-82511121D01*
X121455979Y-82436845D01*
X121453792Y-82334041D01*
X121452515Y-82199454D01*
X121452018Y-82029826D01*
X121452000Y-81983912D01*
X121452000Y-81372285D01*
X121461074Y-81370278D01*
X121461074Y-76265077D01*
X121459892Y-76245945D01*
X121458755Y-76190174D01*
X121457673Y-76100202D01*
X121456655Y-75978468D01*
X121455712Y-75827410D01*
X121454852Y-75649465D01*
X121454087Y-75447072D01*
X121453426Y-75222669D01*
X121452878Y-74978694D01*
X121452455Y-74717585D01*
X121452164Y-74441780D01*
X121452017Y-74153718D01*
X121452000Y-74016036D01*
X121452000Y-71766994D01*
X121495961Y-71777603D01*
X121530377Y-71784235D01*
X121595310Y-71795305D01*
X121682629Y-71809477D01*
X121784203Y-71825416D01*
X121828115Y-71832156D01*
X122116307Y-71876101D01*
X122116307Y-74882959D01*
X122179807Y-74872132D01*
X122204941Y-74866884D01*
X122266386Y-74853582D01*
X122362302Y-74832632D01*
X122490851Y-74804439D01*
X122650194Y-74769410D01*
X122838490Y-74727951D01*
X123053902Y-74680467D01*
X123294590Y-74627365D01*
X123558715Y-74569050D01*
X123844437Y-74505929D01*
X124149918Y-74438408D01*
X124473318Y-74366892D01*
X124812798Y-74291787D01*
X125166519Y-74213501D01*
X125532642Y-74132437D01*
X125909328Y-74049003D01*
X126085897Y-74009883D01*
X126436954Y-73932110D01*
X126436954Y-71236425D01*
X125740236Y-71232708D01*
X125036848Y-71205346D01*
X124568384Y-71174029D01*
X123681785Y-71088423D01*
X122816542Y-70971518D01*
X121970016Y-70822856D01*
X121139571Y-70641982D01*
X120426231Y-70457540D01*
X120133154Y-70376097D01*
X120328538Y-70343158D01*
X120438704Y-70322937D01*
X120565246Y-70297201D01*
X120686752Y-70270377D01*
X120729077Y-70260352D01*
X121125358Y-70149472D01*
X121536612Y-70006465D01*
X121958679Y-69833275D01*
X122387399Y-69631849D01*
X122818612Y-69404130D01*
X123248158Y-69152065D01*
X123640307Y-68898976D01*
X123698796Y-68860618D01*
X123737721Y-68841310D01*
X123769733Y-68837980D01*
X123807482Y-68847559D01*
X123825923Y-68853932D01*
X124016675Y-68918935D01*
X124238772Y-68991174D01*
X124485574Y-69068692D01*
X124750447Y-69149531D01*
X125026752Y-69231735D01*
X125307854Y-69313347D01*
X125587114Y-69392410D01*
X125857898Y-69466967D01*
X126113566Y-69535062D01*
X126287769Y-69579798D01*
X126985906Y-69748309D01*
X127654205Y-69894261D01*
X128294541Y-70017932D01*
X128908784Y-70119601D01*
X129498809Y-70199546D01*
X130066488Y-70258045D01*
X130613693Y-70295375D01*
X131142298Y-70311815D01*
X131223334Y-70312514D01*
X131390564Y-70313283D01*
X131390564Y-57618872D01*
X131378948Y-57616190D01*
X131377538Y-57605846D01*
X131384687Y-57589764D01*
X131390564Y-57592820D01*
X131392902Y-57616008D01*
X131390564Y-57618872D01*
X131390564Y-70313283D01*
X131393373Y-70313296D01*
X131410102Y-70313415D01*
X131410102Y-57560256D01*
X131398487Y-57557574D01*
X131397077Y-57547231D01*
X131404226Y-57531148D01*
X131410102Y-57534205D01*
X131412441Y-57557393D01*
X131410102Y-57560256D01*
X131410102Y-70313415D01*
X131525831Y-70314246D01*
X131622191Y-70316423D01*
X131683939Y-70320886D01*
X131712559Y-70328693D01*
X131709538Y-70340903D01*
X131676358Y-70358575D01*
X131614506Y-70382767D01*
X131525466Y-70414538D01*
X131418995Y-70452016D01*
X130881114Y-70626338D01*
X130313124Y-70779486D01*
X129717953Y-70911151D01*
X129098533Y-71021025D01*
X128457792Y-71108798D01*
X127798663Y-71174162D01*
X127124073Y-71216807D01*
X126436954Y-71236425D01*
X126436954Y-73932110D01*
X126466008Y-73925673D01*
X126835943Y-73843740D01*
X127193894Y-73764486D01*
X127538055Y-73688309D01*
X127866620Y-73615608D01*
X128177783Y-73546782D01*
X128469736Y-73482230D01*
X128740674Y-73422351D01*
X128988790Y-73367545D01*
X129212277Y-73318210D01*
X129409330Y-73274746D01*
X129578141Y-73237551D01*
X129716905Y-73207026D01*
X129823814Y-73183567D01*
X129897063Y-73167576D01*
X129934845Y-73159451D01*
X129939858Y-73158461D01*
X129942642Y-73177223D01*
X129945179Y-73230399D01*
X129947383Y-73313327D01*
X129949168Y-73421345D01*
X129950447Y-73549792D01*
X129951135Y-73694005D01*
X129951231Y-73773551D01*
X129951231Y-74388640D01*
X129907269Y-74398907D01*
X129877782Y-74405557D01*
X129812814Y-74420039D01*
X129714460Y-74441890D01*
X129584817Y-74470646D01*
X129425983Y-74505845D01*
X129240053Y-74547023D01*
X129029123Y-74593716D01*
X128795291Y-74645462D01*
X128540654Y-74701797D01*
X128267306Y-74762259D01*
X127977346Y-74826383D01*
X127672869Y-74893707D01*
X127355972Y-74963768D01*
X127028751Y-75036102D01*
X126693304Y-75110246D01*
X126351727Y-75185736D01*
X126006115Y-75262110D01*
X125658566Y-75338905D01*
X125311177Y-75415657D01*
X124966043Y-75491902D01*
X124625261Y-75567179D01*
X124290928Y-75641022D01*
X123965141Y-75712970D01*
X123649995Y-75782559D01*
X123347587Y-75849326D01*
X123060015Y-75912807D01*
X122789373Y-75972540D01*
X122537760Y-76028061D01*
X122307271Y-76078907D01*
X122100003Y-76124614D01*
X121918053Y-76164720D01*
X121763516Y-76198761D01*
X121638490Y-76226274D01*
X121545071Y-76246796D01*
X121485356Y-76259863D01*
X121461441Y-76265013D01*
X121461074Y-76265077D01*
X121461074Y-81370278D01*
X123107884Y-81005862D01*
X123356540Y-80950811D01*
X123594650Y-80898042D01*
X123819399Y-80848183D01*
X124027968Y-80801860D01*
X124217540Y-80759702D01*
X124385297Y-80722336D01*
X124528421Y-80690389D01*
X124644095Y-80664489D01*
X124729501Y-80645263D01*
X124781821Y-80633340D01*
X124797961Y-80629480D01*
X124803982Y-80626046D01*
X124809255Y-80617853D01*
X124813830Y-80602463D01*
X124817756Y-80577438D01*
X124821085Y-80540339D01*
X124823866Y-80488729D01*
X124826150Y-80420169D01*
X124827985Y-80332222D01*
X124829422Y-80222448D01*
X124830511Y-80088410D01*
X124831302Y-79927669D01*
X124831845Y-79737787D01*
X124832191Y-79516327D01*
X124832388Y-79260849D01*
X124832487Y-78968916D01*
X124832492Y-78945414D01*
X124832779Y-78666622D01*
X124833506Y-78401151D01*
X124834642Y-78151799D01*
X124836158Y-77921365D01*
X124838024Y-77712650D01*
X124840210Y-77528452D01*
X124842687Y-77371571D01*
X124845426Y-77244806D01*
X124848395Y-77150956D01*
X124851567Y-77092820D01*
X124852226Y-77085692D01*
X124887736Y-76862832D01*
X124944464Y-76662865D01*
X125020902Y-76488247D01*
X125115540Y-76341431D01*
X125226872Y-76224873D01*
X125353387Y-76141027D01*
X125457384Y-76101072D01*
X125491340Y-76092739D01*
X125560713Y-76076614D01*
X125662758Y-76053312D01*
X125794730Y-76023447D01*
X125953885Y-75987634D01*
X126137476Y-75946488D01*
X126342760Y-75900622D01*
X126566992Y-75850652D01*
X126807426Y-75797193D01*
X127061318Y-75740858D01*
X127325923Y-75682263D01*
X127479006Y-75648416D01*
X127815774Y-75574146D01*
X128116092Y-75508246D01*
X128381602Y-75450376D01*
X128613949Y-75400195D01*
X128814774Y-75357365D01*
X128985722Y-75321543D01*
X129128436Y-75292392D01*
X129244558Y-75269569D01*
X129335733Y-75252736D01*
X129403603Y-75241552D01*
X129449812Y-75235677D01*
X129476003Y-75234770D01*
X129477021Y-75234872D01*
X129582758Y-75265895D01*
X129678821Y-75332091D01*
X129763169Y-75430307D01*
X129833761Y-75557393D01*
X129888559Y-75710196D01*
X129925521Y-75885566D01*
X129932408Y-75938376D01*
X129936004Y-75991483D01*
X129939147Y-76083354D01*
X129941834Y-76213679D01*
X129944063Y-76382148D01*
X129945832Y-76588449D01*
X129947140Y-76832274D01*
X129947985Y-77113311D01*
X129948364Y-77431250D01*
X129948277Y-77785782D01*
X129947721Y-78176596D01*
X129947178Y-78421791D01*
X129941461Y-80725045D01*
X125721154Y-81660104D01*
X125322397Y-81748430D01*
X124933637Y-81834496D01*
X124556606Y-81917920D01*
X124193032Y-81998322D01*
X123844647Y-82075320D01*
X123513180Y-82148533D01*
X123200361Y-82217579D01*
X122907920Y-82282078D01*
X122637588Y-82341649D01*
X122391095Y-82395909D01*
X122170170Y-82444479D01*
X121976545Y-82486976D01*
X121811949Y-82523020D01*
X121678111Y-82552229D01*
X121576764Y-82574222D01*
X121509635Y-82588618D01*
X121478457Y-82595036D01*
X121476423Y-82595351D01*
X121476423Y-84368417D01*
X121509607Y-84183654D01*
X121568256Y-83991826D01*
X121645773Y-83821455D01*
X121739899Y-83676916D01*
X121848377Y-83562582D01*
X121931466Y-83502966D01*
X121955264Y-83492428D01*
X121997609Y-83478404D01*
X122060315Y-83460465D01*
X122145196Y-83438180D01*
X122254065Y-83411122D01*
X122388736Y-83378860D01*
X122551022Y-83340965D01*
X122742737Y-83297008D01*
X122965694Y-83246560D01*
X123221707Y-83189192D01*
X123512589Y-83124473D01*
X123787620Y-83063582D01*
X124046099Y-83006493D01*
X124294635Y-82951665D01*
X124530454Y-82899706D01*
X124750782Y-82851224D01*
X124952845Y-82806828D01*
X125133870Y-82767125D01*
X125291082Y-82732725D01*
X125421708Y-82704235D01*
X125522974Y-82682263D01*
X125592106Y-82667418D01*
X125626331Y-82660309D01*
X125628478Y-82659913D01*
X125692110Y-82648998D01*
X125687093Y-84032373D01*
X125682077Y-85415747D01*
X125398769Y-85479817D01*
X125296329Y-85502546D01*
X125205571Y-85521863D01*
X125134207Y-85536190D01*
X125089947Y-85543947D01*
X125081269Y-85544867D01*
X125072544Y-85543067D01*
X125065439Y-85534711D01*
X125059788Y-85516188D01*
X125055425Y-85483887D01*
X125052187Y-85434199D01*
X125049908Y-85363511D01*
X125048422Y-85268214D01*
X125047565Y-85144696D01*
X125047172Y-84989347D01*
X125047077Y-84798557D01*
X125047077Y-84048436D01*
X123581722Y-84372180D01*
X122116367Y-84695923D01*
X122116307Y-87933775D01*
X122160269Y-87922926D01*
X122186202Y-87917022D01*
X122247162Y-87903411D01*
X122340014Y-87882786D01*
X122461621Y-87855842D01*
X122608846Y-87823271D01*
X122778555Y-87785767D01*
X122967611Y-87744023D01*
X123172878Y-87698734D01*
X123391220Y-87650591D01*
X123581692Y-87608618D01*
X124065395Y-87502020D01*
X124536300Y-87398168D01*
X124993051Y-87297364D01*
X125434290Y-87199911D01*
X125858660Y-87106109D01*
X126264804Y-87016260D01*
X126651364Y-86930666D01*
X127016983Y-86849629D01*
X127360304Y-86773450D01*
X127679970Y-86702432D01*
X127974623Y-86636875D01*
X128242907Y-86577081D01*
X128483463Y-86523353D01*
X128694934Y-86475991D01*
X128875963Y-86435298D01*
X129025194Y-86401575D01*
X129141268Y-86375123D01*
X129222828Y-86356246D01*
X129268518Y-86345243D01*
X129278421Y-86342399D01*
X129279701Y-86321979D01*
X129280807Y-86265383D01*
X129281730Y-86175512D01*
X129282465Y-86055267D01*
X129283005Y-85907549D01*
X129283343Y-85735259D01*
X129283473Y-85541298D01*
X129283387Y-85328566D01*
X129283080Y-85099965D01*
X129282544Y-84858395D01*
X129282152Y-84721923D01*
X129277154Y-83110176D01*
X128329538Y-83321237D01*
X128143277Y-83362712D01*
X127968951Y-83401509D01*
X127810208Y-83436818D01*
X127670694Y-83467828D01*
X127554057Y-83493728D01*
X127463943Y-83513710D01*
X127404000Y-83526963D01*
X127377874Y-83532676D01*
X127377038Y-83532842D01*
X127375858Y-83514205D01*
X127374780Y-83461086D01*
X127373841Y-83378080D01*
X127373075Y-83269782D01*
X127372519Y-83140788D01*
X127372208Y-82995692D01*
X127372154Y-82901647D01*
X127372154Y-82269910D01*
X128353961Y-82051696D01*
X128547142Y-82009160D01*
X128731362Y-81969363D01*
X128902604Y-81933122D01*
X129056847Y-81901251D01*
X129190072Y-81874566D01*
X129298260Y-81853882D01*
X129377392Y-81840015D01*
X129423448Y-81833780D01*
X129429355Y-81833510D01*
X129545016Y-81852126D01*
X129649446Y-81906379D01*
X129740855Y-81993989D01*
X129817456Y-82112674D01*
X129877459Y-82260152D01*
X129919076Y-82434142D01*
X129923903Y-82464245D01*
X129928992Y-82518690D01*
X129933604Y-82608792D01*
X129937740Y-82731134D01*
X129941401Y-82882297D01*
X129944588Y-83058865D01*
X129947302Y-83257419D01*
X129949545Y-83474544D01*
X129951316Y-83706821D01*
X129952616Y-83950833D01*
X129953448Y-84203163D01*
X129953811Y-84460393D01*
X129953708Y-84719106D01*
X129953138Y-84975884D01*
X129952102Y-85227311D01*
X129950603Y-85469968D01*
X129948639Y-85700439D01*
X129946214Y-85915306D01*
X129943327Y-86111152D01*
X129939979Y-86284558D01*
X129936172Y-86432109D01*
X129931907Y-86550387D01*
X129927183Y-86635973D01*
X129922714Y-86681108D01*
X129877684Y-86896313D01*
X129812024Y-87086415D01*
X129727226Y-87249136D01*
X129624780Y-87382203D01*
X129506176Y-87483339D01*
X129372905Y-87550268D01*
X129348176Y-87558296D01*
X129315938Y-87566470D01*
X129247493Y-87582621D01*
X129144798Y-87606312D01*
X129009806Y-87637106D01*
X128844470Y-87674565D01*
X128650747Y-87718251D01*
X128430590Y-87767727D01*
X128185954Y-87822556D01*
X127918792Y-87882300D01*
X127631059Y-87946520D01*
X127324710Y-88014781D01*
X127001700Y-88086643D01*
X126663981Y-88161670D01*
X126313509Y-88239423D01*
X125952238Y-88319466D01*
X125633231Y-88390059D01*
X125188749Y-88488386D01*
X124780816Y-88578640D01*
X124407811Y-88661119D01*
X124068115Y-88736125D01*
X123760106Y-88803957D01*
X123482164Y-88864915D01*
X123232669Y-88919299D01*
X123010001Y-88967409D01*
X122812539Y-89009545D01*
X122638663Y-89046007D01*
X122486752Y-89077094D01*
X122355186Y-89103107D01*
X122242344Y-89124345D01*
X122146607Y-89141109D01*
X122066353Y-89153699D01*
X121999963Y-89162414D01*
X121945816Y-89167554D01*
X121902291Y-89169419D01*
X121902291Y-90281577D01*
X122068188Y-90243642D01*
X122512771Y-90141965D01*
X122963921Y-90038771D01*
X123420063Y-89934419D01*
X123879620Y-89829271D01*
X124341016Y-89723687D01*
X124802675Y-89618028D01*
X125263022Y-89512655D01*
X125720479Y-89407928D01*
X126173471Y-89304208D01*
X126620422Y-89201856D01*
X127059755Y-89101232D01*
X127489895Y-89002697D01*
X127909266Y-88906612D01*
X128316291Y-88813338D01*
X128709395Y-88723234D01*
X129087001Y-88636663D01*
X129447533Y-88553984D01*
X129789415Y-88475558D01*
X130111072Y-88401747D01*
X130410926Y-88332910D01*
X130687402Y-88269408D01*
X130938925Y-88211603D01*
X131163917Y-88159854D01*
X131360803Y-88114522D01*
X131528006Y-88075969D01*
X131663951Y-88044554D01*
X131767062Y-88020639D01*
X131835762Y-88004584D01*
X131868476Y-87996750D01*
X131870884Y-87996107D01*
X131872927Y-87994289D01*
X131874887Y-87989598D01*
X131876766Y-87981244D01*
X131878565Y-87968438D01*
X131880287Y-87950388D01*
X131881932Y-87926304D01*
X131883504Y-87895397D01*
X131885003Y-87856875D01*
X131886431Y-87809948D01*
X131887790Y-87753827D01*
X131889081Y-87687721D01*
X131890307Y-87610839D01*
X131891469Y-87522392D01*
X131892568Y-87421588D01*
X131893607Y-87307639D01*
X131894587Y-87179753D01*
X131895510Y-87037139D01*
X131896377Y-86879009D01*
X131897191Y-86704572D01*
X131897952Y-86513036D01*
X131898663Y-86303613D01*
X131899326Y-86075511D01*
X131899941Y-85827941D01*
X131900512Y-85560112D01*
X131901039Y-85271234D01*
X131901524Y-84960516D01*
X131901969Y-84627169D01*
X131902375Y-84270401D01*
X131902745Y-83889424D01*
X131903080Y-83483445D01*
X131903382Y-83051676D01*
X131903652Y-82593326D01*
X131903892Y-82107604D01*
X131904104Y-81593720D01*
X131904290Y-81050884D01*
X131904451Y-80478306D01*
X131904588Y-79875195D01*
X131904705Y-79240762D01*
X131904802Y-78574215D01*
X131904881Y-77874765D01*
X131904944Y-77141620D01*
X131904992Y-76373992D01*
X131905028Y-75571090D01*
X131905052Y-74732122D01*
X131905068Y-73856300D01*
X131905075Y-72942833D01*
X131905077Y-72173248D01*
X131905077Y-56360975D01*
X132014648Y-56060218D01*
X132138628Y-55694266D01*
X132251302Y-55310528D01*
X132349755Y-54920719D01*
X132431072Y-54536553D01*
X132492337Y-54169747D01*
X132501159Y-54105338D01*
X132512432Y-54008648D01*
X132520475Y-53910144D01*
X132525537Y-53802260D01*
X132527868Y-53677430D01*
X132527717Y-53528087D01*
G36*
X120016536Y-86487410D02*
X119986854Y-86418063D01*
X119933067Y-86374803D01*
X119851695Y-86353119D01*
X119844317Y-86352229D01*
X119752154Y-86341841D01*
X119752154Y-86973529D01*
X119796115Y-86950390D01*
X119904286Y-86877139D01*
X119977240Y-86788524D01*
X120016780Y-86681693D01*
X120025592Y-86587359D01*
X120016536Y-86487410D01*
X120016536Y-86487410D01*
G37*
X120016536Y-86487410D02*
X119986854Y-86418063D01*
X119933067Y-86374803D01*
X119851695Y-86353119D01*
X119844317Y-86352229D01*
X119752154Y-86341841D01*
X119752154Y-86973529D01*
X119796115Y-86950390D01*
X119904286Y-86877139D01*
X119977240Y-86788524D01*
X120016780Y-86681693D01*
X120025592Y-86587359D01*
X120016536Y-86487410D01*
G36*
X120022768Y-84900394D02*
X120010357Y-84855134D01*
X119982998Y-84816871D01*
X119968580Y-84801882D01*
X119915094Y-84760483D01*
X119855207Y-84745502D01*
X119831810Y-84744769D01*
X119752154Y-84744769D01*
X119752154Y-85371003D01*
X119805884Y-85342473D01*
X119909805Y-85268638D01*
X119980406Y-85174714D01*
X120018298Y-85059661D01*
X120025692Y-84968586D01*
X120022768Y-84900394D01*
X120022768Y-84900394D01*
G37*
X120022768Y-84900394D02*
X120010357Y-84855134D01*
X119982998Y-84816871D01*
X119968580Y-84801882D01*
X119915094Y-84760483D01*
X119855207Y-84745502D01*
X119831810Y-84744769D01*
X119752154Y-84744769D01*
X119752154Y-85371003D01*
X119805884Y-85342473D01*
X119909805Y-85268638D01*
X119980406Y-85174714D01*
X120018298Y-85059661D01*
X120025692Y-84968586D01*
X120022768Y-84900394D01*
G36*
X120009018Y-80509409D02*
X119961535Y-80433597D01*
X119887056Y-80381314D01*
X119789393Y-80355262D01*
X119675389Y-80357711D01*
X119521413Y-80391533D01*
X119383617Y-80445940D01*
X119267979Y-80517468D01*
X119180476Y-80602650D01*
X119139162Y-80668554D01*
X119117547Y-80738811D01*
X119108414Y-80822403D01*
X119111824Y-80904555D01*
X119127834Y-80970487D01*
X119137878Y-80989149D01*
X119200830Y-81046122D01*
X119290804Y-81080454D01*
X119402339Y-81091228D01*
X119529976Y-81077526D01*
X119586077Y-81064517D01*
X119738307Y-81009712D01*
X119859951Y-80935611D01*
X119949435Y-80843856D01*
X120005184Y-80736088D01*
X120025623Y-80613949D01*
X120025692Y-80606046D01*
X120009018Y-80509409D01*
X120009018Y-80509409D01*
G37*
X120009018Y-80509409D02*
X119961535Y-80433597D01*
X119887056Y-80381314D01*
X119789393Y-80355262D01*
X119675389Y-80357711D01*
X119521413Y-80391533D01*
X119383617Y-80445940D01*
X119267979Y-80517468D01*
X119180476Y-80602650D01*
X119139162Y-80668554D01*
X119117547Y-80738811D01*
X119108414Y-80822403D01*
X119111824Y-80904555D01*
X119127834Y-80970487D01*
X119137878Y-80989149D01*
X119200830Y-81046122D01*
X119290804Y-81080454D01*
X119402339Y-81091228D01*
X119529976Y-81077526D01*
X119586077Y-81064517D01*
X119738307Y-81009712D01*
X119859951Y-80935611D01*
X119949435Y-80843856D01*
X120005184Y-80736088D01*
X120025623Y-80613949D01*
X120025692Y-80606046D01*
X120009018Y-80509409D01*
G36*
X119441155Y-75086220D02*
X119325993Y-75131136D01*
X119227856Y-75203266D01*
X119155082Y-75295604D01*
X119130927Y-75346856D01*
X119113500Y-75413739D01*
X119101934Y-75496219D01*
X119098267Y-75575053D01*
X119101946Y-75620308D01*
X119123858Y-75681531D01*
X119164741Y-75711808D01*
X119212891Y-75718000D01*
X119293253Y-75700490D01*
X119353860Y-75650110D01*
X119378352Y-75606432D01*
X119390656Y-75566271D01*
X119407587Y-75497345D01*
X119426900Y-75409355D01*
X119446161Y-75313025D01*
X119491617Y-75074127D01*
X119441155Y-75086220D01*
X119441155Y-75086220D01*
G37*
X119441155Y-75086220D02*
X119325993Y-75131136D01*
X119227856Y-75203266D01*
X119155082Y-75295604D01*
X119130927Y-75346856D01*
X119113500Y-75413739D01*
X119101934Y-75496219D01*
X119098267Y-75575053D01*
X119101946Y-75620308D01*
X119123858Y-75681531D01*
X119164741Y-75711808D01*
X119212891Y-75718000D01*
X119293253Y-75700490D01*
X119353860Y-75650110D01*
X119378352Y-75606432D01*
X119390656Y-75566271D01*
X119407587Y-75497345D01*
X119426900Y-75409355D01*
X119446161Y-75313025D01*
X119491617Y-75074127D01*
X119441155Y-75086220D01*
G36*
X120022352Y-72517403D02*
X120013744Y-72459662D01*
X120005574Y-72434456D01*
X119963569Y-72389852D01*
X119898349Y-72355200D01*
X119825719Y-72338378D01*
X119811739Y-72337846D01*
X119752154Y-72337846D01*
X119752154Y-72650461D01*
X119752882Y-72756014D01*
X119754896Y-72846343D01*
X119757937Y-72914911D01*
X119761746Y-72955177D01*
X119764501Y-72963077D01*
X119803312Y-72948982D01*
X119855315Y-72912568D01*
X119910077Y-72862641D01*
X119957162Y-72808007D01*
X119969446Y-72790117D01*
X120005048Y-72724209D01*
X120021828Y-72660457D01*
X120025692Y-72586736D01*
X120022352Y-72517403D01*
X120022352Y-72517403D01*
G37*
X120022352Y-72517403D02*
X120013744Y-72459662D01*
X120005574Y-72434456D01*
X119963569Y-72389852D01*
X119898349Y-72355200D01*
X119825719Y-72338378D01*
X119811739Y-72337846D01*
X119752154Y-72337846D01*
X119752154Y-72650461D01*
X119752882Y-72756014D01*
X119754896Y-72846343D01*
X119757937Y-72914911D01*
X119761746Y-72955177D01*
X119764501Y-72963077D01*
X119803312Y-72948982D01*
X119855315Y-72912568D01*
X119910077Y-72862641D01*
X119957162Y-72808007D01*
X119969446Y-72790117D01*
X120005048Y-72724209D01*
X120021828Y-72660457D01*
X120025692Y-72586736D01*
X120022352Y-72517403D01*
G36*
X129286818Y-77770886D02*
X129286693Y-77521956D01*
X129286407Y-77307145D01*
X129285907Y-77123976D01*
X129285139Y-76969970D01*
X129284049Y-76842648D01*
X129282583Y-76739531D01*
X129280687Y-76658141D01*
X129278308Y-76595999D01*
X129275390Y-76550627D01*
X129271881Y-76519547D01*
X129267727Y-76500279D01*
X129262873Y-76490346D01*
X129257266Y-76487267D01*
X129252731Y-76487905D01*
X129229110Y-76493556D01*
X129170017Y-76507034D01*
X129078137Y-76527740D01*
X128956153Y-76555078D01*
X128806752Y-76588448D01*
X128632617Y-76627253D01*
X128436435Y-76670894D01*
X128220890Y-76718774D01*
X127988667Y-76770293D01*
X127742451Y-76824854D01*
X127484928Y-76881860D01*
X127403497Y-76899872D01*
X127142720Y-76957562D01*
X126892206Y-77013009D01*
X126654663Y-77065612D01*
X126432798Y-77114770D01*
X126229319Y-77159884D01*
X126046934Y-77200350D01*
X125888351Y-77235570D01*
X125756278Y-77264942D01*
X125653422Y-77287864D01*
X125582492Y-77303737D01*
X125546196Y-77311959D01*
X125542459Y-77312845D01*
X125496461Y-77324390D01*
X125496461Y-78895118D01*
X125496639Y-79139098D01*
X125497154Y-79371498D01*
X125497980Y-79589399D01*
X125499088Y-79789881D01*
X125500452Y-79970023D01*
X125502044Y-80126905D01*
X125503838Y-80257609D01*
X125505806Y-80359213D01*
X125507921Y-80428797D01*
X125510155Y-80463442D01*
X125511115Y-80466872D01*
X125531854Y-80462882D01*
X125588144Y-80450998D01*
X125677386Y-80431790D01*
X125796981Y-80405827D01*
X125944331Y-80373679D01*
X126116835Y-80335914D01*
X126311897Y-80293102D01*
X126526916Y-80245812D01*
X126759295Y-80194614D01*
X127006434Y-80140077D01*
X127265735Y-80082771D01*
X127406260Y-80051679D01*
X129286750Y-79635461D01*
X129286837Y-78056414D01*
X129286818Y-77770886D01*
X129286818Y-77770886D01*
G37*
X129286818Y-77770886D02*
X129286693Y-77521956D01*
X129286407Y-77307145D01*
X129285907Y-77123976D01*
X129285139Y-76969970D01*
X129284049Y-76842648D01*
X129282583Y-76739531D01*
X129280687Y-76658141D01*
X129278308Y-76595999D01*
X129275390Y-76550627D01*
X129271881Y-76519547D01*
X129267727Y-76500279D01*
X129262873Y-76490346D01*
X129257266Y-76487267D01*
X129252731Y-76487905D01*
X129229110Y-76493556D01*
X129170017Y-76507034D01*
X129078137Y-76527740D01*
X128956153Y-76555078D01*
X128806752Y-76588448D01*
X128632617Y-76627253D01*
X128436435Y-76670894D01*
X128220890Y-76718774D01*
X127988667Y-76770293D01*
X127742451Y-76824854D01*
X127484928Y-76881860D01*
X127403497Y-76899872D01*
X127142720Y-76957562D01*
X126892206Y-77013009D01*
X126654663Y-77065612D01*
X126432798Y-77114770D01*
X126229319Y-77159884D01*
X126046934Y-77200350D01*
X125888351Y-77235570D01*
X125756278Y-77264942D01*
X125653422Y-77287864D01*
X125582492Y-77303737D01*
X125546196Y-77311959D01*
X125542459Y-77312845D01*
X125496461Y-77324390D01*
X125496461Y-78895118D01*
X125496639Y-79139098D01*
X125497154Y-79371498D01*
X125497980Y-79589399D01*
X125499088Y-79789881D01*
X125500452Y-79970023D01*
X125502044Y-80126905D01*
X125503838Y-80257609D01*
X125505806Y-80359213D01*
X125507921Y-80428797D01*
X125510155Y-80463442D01*
X125511115Y-80466872D01*
X125531854Y-80462882D01*
X125588144Y-80450998D01*
X125677386Y-80431790D01*
X125796981Y-80405827D01*
X125944331Y-80373679D01*
X126116835Y-80335914D01*
X126311897Y-80293102D01*
X126526916Y-80245812D01*
X126759295Y-80194614D01*
X127006434Y-80140077D01*
X127265735Y-80082771D01*
X127406260Y-80051679D01*
X129286750Y-79635461D01*
X129286837Y-78056414D01*
X129286818Y-77770886D01*
%LPC*%
D13*
X104000000Y-54000000D03*
X146000000Y-54000000D03*
X146000000Y-96000000D03*
X104000000Y-96000000D03*
D14*
X138000000Y-65000000D03*
D15*
X138000000Y-62460000D03*
X138000000Y-59920000D03*
D14*
X148000000Y-82460000D03*
D15*
X148000000Y-85000000D03*
X148000000Y-87540000D03*
D14*
X145000000Y-80920000D03*
D15*
X145000000Y-83460000D03*
X145000000Y-86000000D03*
X145000000Y-88540000D03*
D14*
X148000000Y-63380000D03*
D15*
X148000000Y-65920000D03*
X148000000Y-68460000D03*
X148000000Y-71000000D03*
X148000000Y-73540000D03*
X148000000Y-76080000D03*
D14*
X145000000Y-60840000D03*
D15*
X145000000Y-63380000D03*
X145000000Y-65920000D03*
X145000000Y-68460000D03*
X145000000Y-71000000D03*
X145000000Y-73540000D03*
X145000000Y-76080000D03*
D14*
X139620000Y-93000000D03*
D15*
X137080000Y-93000000D03*
X134540000Y-93000000D03*
X132000000Y-93000000D03*
X129460000Y-93000000D03*
X126920000Y-93000000D03*
D14*
X139620000Y-98000000D03*
D15*
X137080000Y-98000000D03*
X134540000Y-98000000D03*
X132000000Y-98000000D03*
X129460000Y-98000000D03*
X126920000Y-98000000D03*
X124380000Y-98000000D03*
D14*
X112000000Y-98000000D03*
D15*
X114540000Y-98000000D03*
D16*
X106000000Y-69080000D03*
X103460000Y-69080000D03*
X106000000Y-66540000D03*
X103460000Y-66540000D03*
X106000000Y-64000000D03*
X103460000Y-64000000D03*
X106000000Y-86080000D03*
X103460000Y-86080000D03*
X106000000Y-83540000D03*
X103460000Y-83540000D03*
X106000000Y-81000000D03*
X103460000Y-81000000D03*
D17*
X118000000Y-95800000D03*
X117300000Y-89200000D03*
X135400000Y-73300000D03*
X133900000Y-74400000D03*
X114600000Y-75100000D03*
X119500000Y-96000000D03*
X110000000Y-94100000D03*
X114000000Y-85100000D03*
X114300000Y-59000000D03*
X141300000Y-75700000D03*
X141600000Y-82900000D03*
X124500000Y-83300000D03*
X120000000Y-82600000D03*
X104400000Y-74600000D03*
X115399980Y-80100000D03*
X117500000Y-80100000D03*
X137400000Y-77400000D03*
X137400000Y-79100000D03*
X103400000Y-73200000D03*
X110599969Y-66000000D03*
X112400020Y-66000000D03*
X142599991Y-84789771D03*
X138300000Y-69500000D03*
X138400000Y-77400000D03*
X138400000Y-79100000D03*
X138200000Y-67700000D03*
X134700000Y-65300000D03*
X136200000Y-66000000D03*
X134600000Y-95799980D03*
X104700000Y-73300000D03*
X112400020Y-66900000D03*
X109900000Y-66900000D03*
X142500000Y-79899980D03*
X110474272Y-72574285D03*
X124975722Y-72324278D03*
X143000000Y-78300000D03*
X143800031Y-90523055D03*
X138400000Y-90400000D03*
X108200000Y-80700000D03*
X109300000Y-72800000D03*
X110300000Y-71600000D03*
X125800000Y-72300000D03*
X131142872Y-89857128D03*
X133200000Y-89300000D03*
X120900000Y-68800000D03*
X120900000Y-67300000D03*
X123042872Y-81757128D03*
X122900020Y-86000000D03*
X124100000Y-72900020D03*
X124000000Y-76600000D03*
X117705083Y-86254765D03*
X124300000Y-79300000D03*
X122242872Y-80957128D03*
X120100000Y-87200000D03*
X121900000Y-87200000D03*
X123500000Y-78700000D03*
M02*
